<?xml version="1.0" encoding="utf-8"?>
<!-- Generator: Adobe Illustrator 23.0.6, SVG Export Plug-In . SVG Version: 6.00 Build 0)  -->
<svg version="1.1" id="Layer_1" xmlns="http://www.w3.org/2000/svg" xmlns:xlink="http://www.w3.org/1999/xlink" x="0px" y="0px"
	 viewBox="0 0 1350 396" style="enable-background:new 0 0 1350 396;" xml:space="preserve">
<style type="text/css">
	.st0{fill:#333333;}
</style>
<path class="st0" d="M1185.5,94.1h-1021c-7.4,0-14.2,3-19.1,7.9c-4.9,4.9-7.9,11.6-7.9,19v153.9c0,7.4,3,14.2,7.9,19.1
	c4.9,4.9,11.6,7.9,19.1,7.9h1021c7.4,0,14.2-3,19-7.9c4.9-4.9,7.9-11.6,7.9-19.1V121.1c0-7.4-3-14.2-7.9-19
	C1199.6,97.1,1192.9,94.1,1185.5,94.1 M164.5,69h1021c14.3,0,27.4,5.9,36.8,15.3c9.4,9.4,15.3,22.5,15.3,36.8v153.9
	c0,14.3-5.9,27.4-15.3,36.8c-9.4,9.4-22.5,15.3-36.8,15.3h-1021c-14.3,0-27.4-5.9-36.8-15.3c-9.4-9.4-15.3-22.5-15.3-36.8V121.1
	c0-14.3,5.9-27.4,15.3-36.8C137.2,74.8,150.2,69,164.5,69z"/>
<g>
	<path class="st0" d="M207.6,116.7c13.7,0,23.7,3.8,30,11.3c5.6,6.6,8.5,15.7,8.5,27.4v23.6c0,11.5-4.4,21.2-13.1,29.1l18.2,71
		h-26.4l-14.9-61.4c-0.7,0.1-1.5,0.1-2.2,0.1h-14.1v61.3H169V116.7H207.6z M222.2,155.9c0-9.4-4.6-14.2-13.9-14.2h-14.7v52h14.7
		c3.9,0,7.2-1.4,9.9-4.1c2.7-2.8,4-6.1,4-9.9V155.9z"/>
	<path class="st0" d="M306.7,281.3c-10.8,0-19.9-3.8-27.4-11.3S268,253.4,268,242.7v-126h24v125.7c0,3.9,1.4,7.2,4.1,9.9
		c2.8,2.7,6.1,4.1,9.9,4.1c3.9,0,7.2-1.4,9.9-4.1c2.7-2.7,4.1-6,4.1-9.9V116.7h25.6v126c0,10.9-3.8,20-11.4,27.4
		C326.6,277.6,317.4,281.3,306.7,281.3z"/>
	<path class="st0" d="M394.9,116.7l32.4,109.2V116.7h24.5v162.5h-26.2l-33.7-104.1v104.1h-24.5V116.7H394.9z"/>
	<path class="st0" d="M501.3,116.7l32.4,109.2V116.7h24.5v162.5H532l-33.7-104.1v104.1h-24.5V116.7H501.3z"/>
	<path class="st0" d="M604.6,279.3h-24.5V116.7h24.5V279.3z"/>
	<path class="st0" d="M654.1,116.7l32.4,109.2V116.7H711v162.5h-26.2l-33.7-104.1v104.1h-24.5V116.7H654.1z"/>
	<path class="st0" d="M771.4,281.3c-10.8,0-20-3.8-27.5-11.4s-11.3-16.7-11.3-27.4v-89c0-10.8,3.8-19.9,11.4-27.5
		c7.6-7.6,16.8-11.4,27.4-11.4c10.8,0,20,3.8,27.5,11.4c7.5,7.6,11.3,16.8,11.3,27.4v18.5h-25.4v-19c0-3.9-1.4-7.3-4.1-10
		c-2.8-2.8-6.1-4.1-10-4.1c-3.9,0-7.2,1.4-9.9,4.1c-2.7,2.8-4.1,6.1-4.1,10v89.2c0,3.9,1.4,7.2,4.1,10c2.7,2.7,6,4.1,9.9,4.1
		c3.9,0,7.3-1.4,10-4.1c2.8-2.7,4.1-6.1,4.1-10v-32h-13.6v-24.5h39v56.8c0,10.8-3.8,20-11.4,27.5S782,281.3,771.4,281.3z"/>
	<path class="st0" d="M885.2,279.3h-24.5V116.7h35.1l22.8,116.6l21.9-116.6h33.8v162.5h-24.5V177.1l-21.2,102.1h-19.7l-23.8-101.9
		V279.3z"/>
	<path class="st0" d="M1026.3,241.9l-6,37.3h-25.5l27.5-162.5h33.8l27.2,162.5h-25.7l-5.8-37.3H1026.3z M1039.2,154l-9.1,64.1h18.2
		L1039.2,154z"/>
	<path class="st0" d="M1181,240.4c0,10.7-3.8,19.8-11.3,27.4s-16.6,11.4-27.2,11.4H1104V116.7h38.5c10.7,0,19.8,3.8,27.3,11.4
		c7.5,7.6,11.2,16.7,11.2,27.4V240.4z M1128.5,255h14.7c3.9,0,7.2-1.4,9.9-4.2c2.7-2.8,4-6.1,4-9.9v-85c0-3.9-1.4-7.2-4.1-9.9
		s-6-4.1-9.8-4.1h-14.7V255z"/>
</g>
</svg>
