<?xml version="1.0" encoding="utf-8"?>
<!-- Generator: Adobe Illustrator 23.0.6, SVG Export Plug-In . SVG Version: 6.00 Build 0)  -->
<svg version="1.1" id="Layer_1" xmlns="http://www.w3.org/2000/svg" xmlns:xlink="http://www.w3.org/1999/xlink" x="0px" y="0px"
	 viewBox="0 0 1350 1350" style="enable-background:new 0 0 1350 1350;" xml:space="preserve">
<style type="text/css">
	.st0{fill:#FFFFFF;}
	.st1{clip-path:url(#SVGID_2_);fill-rule:evenodd;clip-rule:evenodd;fill:#CCCCCC;}
	.st2{clip-path:url(#SVGID_2_);fill-rule:evenodd;clip-rule:evenodd;fill:#B4B4B4;}
	.st3{clip-path:url(#SVGID_2_);fill-rule:evenodd;clip-rule:evenodd;fill:#989898;}
	.st4{clip-path:url(#SVGID_2_);fill-rule:evenodd;clip-rule:evenodd;fill:#333333;}
	.st5{clip-path:url(#SVGID_2_);fill-rule:evenodd;clip-rule:evenodd;fill:#FFFFFF;}
	.st6{fill:#333333;}
	.st7{fill:#CCCCCC;}
	.st8{fill-rule:evenodd;clip-rule:evenodd;fill:#FFFFFF;}
	.st9{fill:#C0282D;}
	.st10{fill:none;}
	.st11{fill:#010101;}
</style>
<g>
	<path class="st0" d="M1255,915c0,18.5-7.2,36-20.4,49.1c-11.6,11.6-26.6,18.6-42.7,20.1c-2.4,6.6-5.2,13-8.7,19.1
		c-0.1,0.2-0.2,0.3-0.3,0.5c-10.6,18.4-26.3,34-45.3,45l-401,231.5c-19,11-40.3,16.8-61.6,16.8s-42.6-5.8-61.6-16.8l-400.9-231.5
		c-19-11-34.7-26.5-45.3-45c-0.1-0.2-0.3-0.5-0.3-0.5c-3.5-6.1-6.3-12.5-8.7-19.1c-16.1-1.5-31.1-8.4-42.7-20.1
		C102.3,951,95,933.5,95,915V761.2c0-18.5,7.2-35.9,20.4-49.1c9.9-9.9,22.1-16.4,35.4-19V407.9c0-21.7,5.5-42.9,16-61.2
		c0.1-0.2,0.2-0.3,0.3-0.5c10.7-18.5,26.3-34,45.3-45L613.4,69.8c19-11,40.3-16.8,61.6-16.8c21.3,0,42.6,5.8,61.6,16.8l401,231.5
		c19,11,34.7,26.5,45.3,45c0.1,0.1,0.2,0.3,0.3,0.5c10.5,18.3,16,39.5,16,61.2V693c13.3,2.7,25.6,9.2,35.4,19
		c13.1,13.2,20.4,30.6,20.4,49.1V915z"/>
	<g>
		<defs>
			<path id="SVGID_1_" d="M718.1,103.5L1119,335c0.3,0.2,0.7,0.4,1,0.6c13.1,7.8,23.5,18.3,30.7,30.7c0.2,0.4,0.4,0.7,0.6,1.1
				c7,12.6,10.8,26.9,10.8,42.1v534.1c0,15.6-4,30.3-11.4,43.1l0,0.1l0,0c-7.3,12.7-18.1,23.4-31.7,31.3l0,0l-400.9,231.5
				c-0.4,0.2-0.7,0.4-1.1,0.6c-13.4,7.5-27.7,11.3-42,11.3c-14.7,0-29.3-3.9-43-11.8l-0.1,0l0,0L231,1018.1c-0.3-0.2-0.7-0.4-1-0.6
				c-13.2-7.8-23.5-18.3-30.7-30.7c-0.2-0.4-0.4-0.7-0.6-1.1c-7-12.6-10.8-26.9-10.8-42.1V409.5c0-15.6,4-30.3,11.4-43.1l0-0.1l0,0
				c7.3-12.7,18.1-23.4,31.7-31.3l0,0l400.9-231.5c0.4-0.2,0.7-0.4,1.1-0.6c13.4-7.5,27.7-11.3,42-11.3
				C689.7,91.7,704.3,95.6,718.1,103.5L718.1,103.5L718.1,103.5z"/>
		</defs>
		<use xlink:href="#SVGID_1_"  style="overflow:visible;fill:#FFFFFF;"/>
		<clipPath id="SVGID_2_">
			<use xlink:href="#SVGID_1_"  style="overflow:visible;"/>
		</clipPath>
		<path class="st1" d="M353.4,508.2c0,0,143-44.7,161.7-56.6c18.6-11.9,53.9-42.5,73.8-36.5s55.9,2.2,71.5,9.7
			c15.6,7.4,29.8,27.6,52.2,17.1c22.4-10.4,50-38.1,64.1-38c14.1,0.1,29.1-3.7,71.5,19.4c42.5,23.1,135.6,38,157.2,53.6
			c21.6,15.6,47,31.2,84.2,51.4c37.2,20.2,120.7,92.4,120.7,92.4l-487.9,84.5L334,558.9L353.4,508.2z"/>
		<path class="st2" d="M199.9,463.1c6.8,0,192.8-11.9,297.3,48.4c104.5,60.3,122.9,80.6,176.8,99.3c53.9,18.7,140.1-106,387.2-73.3
			c247.2,32.8,347.4,35.8,362.7,36.5c15.3,0.7,195.3,289.8,195.3,289.8s-1129.6,28.3-1201,25.3c-71.3-3-414.5-59.6-417.9-93.9
			C-3.1,761.1,199.9,463.1,199.9,463.1"/>
		<path class="st3" d="M73.3,601.7c192.2-92.4,423.7-47.8,479-24.6c55.3,23.2,119.2,102.8,332.3,9.7
			c213.1-93.1,387.4-46.2,387.4-46.2l85.7,416.5l-304-93.9L-34,823L73.3,601.7z"/>
		<path class="st1" d="M919.9,254.4c6.2,0,12.1,0.5,17.7,1.4c9.6-0.9,19.7-1.4,30.3-1.4c55.7,0,100.8,14.1,100.8,31.5
			c0,8.7-11.3,16.6-29.6,22.3c44,1,72.1,2.6,72.1,4.3c0,3.1-87.3,5.6-195,5.6c-107.7,0-195-2.5-195-5.6c0-2.3,50.4-4.4,121.9-5.2
			c-1.5-1.9-2.4-4-2.4-6.2c0-7.2,8.9-13.1,20.2-13.6c-0.1-0.6-0.1-1.1-0.1-1.7C860.9,268.5,887.3,254.4,919.9,254.4"/>
		<path class="st1" d="M301,320.3c-8.5-0.6-17.3-1-26.4-1c-63.3,0-114.6,16-114.6,35.8c0,9.9,12.9,18.9,33.7,25.4
			c-50,1.2-82,2.9-82,4.9c0,3.5,99.3,6.4,221.8,6.4s221.8-2.8,221.8-6.4c0-2.7-57.4-5-138.7-5.9c1.7-2.1,2.7-4.5,2.7-7
			c0-8.2-10.1-14.8-23-15.4c0.1-0.6,0.1-1.3,0.1-1.9c0-9-6.3-17.3-16.6-23.6c0-0.4,0-0.9,0-1.3c0-22.1-17.9-40-40-40
			C321.1,290.3,305.4,303.1,301,320.3"/>
		<path class="st1" d="M441.1,181c-8.5-0.6-17.3-1-26.4-1c-63.3,0-114.6,16-114.6,35.8c0,9.9,12.9,18.9,33.7,25.4
			c-50,1.2-82,2.9-82,4.9c0,3.5,99.3,6.4,221.8,6.4c122.5,0,221.8-2.8,221.8-6.4c0-2.7-57.4-5-138.7-5.9c1.7-2.1,2.7-4.5,2.7-7
			c0-8.2-10.1-14.8-23-15.4c0.1-0.6,0.1-1.3,0.1-1.9c0-9-6.3-17.3-16.6-23.6c0-0.4,0-0.9,0-1.3c0-22.1-17.9-40-40-40
			C461.2,151,445.5,163.8,441.1,181"/>
		<path class="st4" d="M248,633.8c0.6,2.7-6-1.5-1.9-1C246.9,632.9,247.5,633.3,248,633.8 M302.3,648.9c-7.9,7.2-8-5.5,0.1-3.4
			C304.4,646,303,647.9,302.3,648.9z M289.4,632c7.8-1.9,8.3,8.9,5.9,6.6c-2.1-1.9-8.2-0.3-6.8-5.7
			C288.6,632.2,288.7,632.2,289.4,632z M258.8,553.3c1.3,1.2-2.7,1-0.3,0L258.8,553.3z M260.2,556.3c-0.2-1.8,3.2-2.1,0.8,0.1
			C260.7,556.8,260.5,556.7,260.2,556.3z M242.9,607.2c2.8-2.4,21.7-3.5,8.2,0.2c-2.8,0.8-5.6,1.5-8.2,0.3L242.9,607.2z
			 M236.5,610.6c-2.9,1-1.9-3.3,1.6-1.6C238.2,609.9,237.2,610.3,236.5,610.6z M251.7,582.9 M256.9,600.9c1-3,6.3-1.5,1.6,0.1
			C258.1,601.1,257.2,601.3,256.9,600.9z M241.6,587.3 M280,567.7 M275.8,707.8c-0.9,1.3-3.6-1.1-4.3,0.5c-0.6,1.6-2-2.6-2.8,7.9
			c-0.7,9.2-1.5,19.2,1.1,28.1c0.8,2.8-3.6,1.7-6.3,1.6c-5.4-0.3-3.6,0-3.5-7.1c0.1-5.9,2.3-31.5-2.4-32.5c-4.3-0.9-1.7-2.9-7-5.1
			c-8.4-3.8-2-1.9-7.3,0.8c-2.6,1.4-1.2-2.8-6,3.1c-1.8,2.4-11.5,9.5-7.4,1.8c3.5-8.1-6.8-4.4-7.6-3.7c-5,4.4-2.7-4-6.3,4.7
			c-0.5,1.2-0.7,1.8-1.9,1.7c-2.3-1-9.8-1.8-12.6-2.2c-5.2-1.4,1.5-2.4,3.1-6.4c0.3-0.9,5.5,0.2,2-2.5c-3-2.4-8.8,5.7-10.5,1.1
			c-0.5-1.2,4.4-3.5-6.3-3.2c-5.6,0.1,2.5-0.7-0.2-5.7c-1.4-2.6,14.4-10.5,12.9-13.1c-2.4-4.2-8.4-3.3,0.6-4
			c15.6-1.2,14.9-15.5-1.5-17.9c-4-0.6,3.9-2.5,0.4-8.2c-1.8-3,12.2,0.2,10.5-4.8c-1.3-4,1.9-4.5,2.3-9.5c0.5-5.2,8.2-6.2-2.5-10.4
			c-7.1-3.7,1.8-4.5-6-7.1c-6.1-2,6.4-3.8,8.9-4.8c4-1.5,16.3-7.2,12.1-12.9c-6.8-9.4-9.5-6.5-0.6-9.9c4.8-1.8-6.2-1.6-1.6-7.5
			c2.4-3,7.3,0.6,4.3-5.6c-4.2-8.7,17.1,1.7,18.8-5.9c1.5-6.7-16-3-20.4-11.6c-2.6-5,20.6,5.4,15.4-3.3c-1.8-3.1-6.8-8-6.7-10.9
			c0.1-2.9-9.4-6.6,3.1-6.7c10.8,0-0.1-5.5,11.3-3.5c6.1,1.1-6.6-3.9-6.6-5.5c1.7-1,7.6-0.7,0.7-3.9c-6.5-3.1,15.5-1.6,6.4-9
			c-6.6-5.4,9,0.1,3.3-5.5c-3.9-3.9,9-0.8,4.4-4c-1.9-1.3-2-1.9-2.3-4.1c0.2-2.6,4.4-0.2,3.4-5.7c-0.4-2.4,3.8,2,3.5-0.8
			c-0.2-2,2.8-20.3,4.4-11.6c0.2,0.9,0.9,5.2,1,5.3c2,1.7,1.7,5.4,3.9,9.5c3.7,7.1,6.8,5.3,2.8,9.5c-2.3,2.4,3.5,3.8,4.7,10.2
			c0.1,0.3,2.3,7,3.6,6.2c0.9-0.6,2.6,9.8-0.1,11.1c-9.2,3.9-2.7-0.2-0.3,4.1c2,3.8-10.6,5.1-2.8,5.7c2.9,0.2,5.7-0.6,8.4-1.3
			c15.6-4.7,5.8-0.2,3.9,5.3c1.1,1.3,10-5.6,5.3,3.5c-6.2,8.1-9.3-0.9-8.6,20.4c0.1,3.2,2.1,1.3,6.6,0.7l3-0.4
			c12.6-1.1-1.4,13.2-4.9,14.7c-3.8,1.6-12.2,3.5-6,8.9c6.7,5.9,11-3.9,18.8,1.7c-3.9,7.5-9.7,9.6-0.3,12.7c8.5,2.3,1.7,1.9,4,4.9
			c3.1,4,8.6,6.3,7,11.8c-0.4,1.3,10.1,8.6-1.6,8c-2.5-0.1-8.4,0.8-6.1,5c1.6,2.9-6.3,1.2-0.6,8.3c3,3.8,18.2,8.2,15.6,11.9
			c-4.5,6.1,3.6,4.8-12.2,10.3c-13.6,4.8,14.3-2.2,9.3,4.6c-0.9,1.2-5.2,3.2-7.6,2.2c-4.1-1.6-10.8,2.4-4.7,1.8
			c2.5-0.2,1.3,2.8,3.5,6c2.8,3.9-4.6,8.3,4.4,5.7c1.9-0.5,15-0.1,11.4,3.2c-10.3,9.5-9.9-4.4-10.7,4.9c-0.6,6-3.4-2.7-4-1.5
			c-4.5,8.9-6.6-8-8-1c0,0.2-3.4,1.1,0.6,2c1.9,0.4-1.2-0.7-0.1,0.8c0.8,1-6.7,9.5-7.6,5.3c-0.5-2.1-2,0.4-6,0.6
			c-2.8,0.1-7.4,4.1-9.8,1.5C282.6,706.1,277.7,706.1,275.8,707.8z M283.7,587.9c0.9-2-2.3-0.8-0.9,0.5
			C283.3,588.3,283.3,588.3,283.7,587.9z M221.1,635.5c-7.9,4.6,3.9,10.1,2.1,1C222.9,635.1,222.2,635,221.1,635.5z M233,639.7
			c-1.6-1.3-2.1,3.2-0.1,0.3L233,639.7z M217.1,655.3 M287.2,665.6c4-0.5-6.4-5.1-4.1-1.6C283.9,665.1,285.9,665.5,287.2,665.6z
			 M312.4,665.3c6-0.9-0.4-4.5-1.2-0.8C311,665.3,311.9,665.3,312.4,665.3z M318.1,665c-2.3-2.2,0.3,3.2,0.3,0.7
			C318.4,665.4,318.2,665.2,318.1,665z M300.3,680.6c6.6,1.1,1.1-6.5-0.8-1.2C299.2,680.1,299.8,680.3,300.3,680.6z M215.1,681.1
			c4.7-6.6-13.8,5-2.8,1.6C213.7,682.2,214.2,682,215.1,681.1z M207,689.3c3.8-1.5,0.9-0.8-1.1-3.1c-3-3.3-3.3,2.6-5.2,3
			C197.9,689.9,202,690.8,207,689.3z"/>
		<path class="st4" d="M342.1,630.1c0.5,2.2-4.9-1.2-1.6-0.8C341.2,629.3,341.7,629.6,342.1,630.1 M386,642.3
			c-6.4,5.8-6.4-4.5,0.1-2.7C387.8,640,386.6,641.5,386,642.3z M375.6,628.6c6.3-1.6,6.7,7.2,4.7,5.4c-1.7-1.6-6.6-0.2-5.5-4.6
			C375,628.8,375.1,628.8,375.6,628.6z M350.8,564.9c1,1-2.2,0.8-0.3,0L350.8,564.9z M352,567.3c-0.1-1.5,2.6-1.7,0.7,0.1
			C352.4,567.7,352.2,567.7,352,567.3z M338,608.5c2.3-2,17.6-2.8,6.6,0.2c-2.2,0.6-4.5,1.2-6.7,0.2L338,608.5z M332.8,611.3
			c-2.3,0.8-1.5-2.7,1.3-1.3C334.2,610.7,333.4,611,332.8,611.3z M345.1,588.9 M349.3,603.4c0.8-2.4,5.1-1.2,1.3,0
			C350.3,603.6,349.6,603.8,349.3,603.4z M336.9,592.4 M368,576.5 M364.6,690c-0.7,1-2.9-0.9-3.4,0.4c-0.5,1.3-1.6-2.1-2.3,6.4
			c-0.6,7.4-1.2,15.6,0.9,22.8c0.7,2.3-2.9,1.4-5.1,1.3c-4.4-0.3-2.9,0-2.8-5.8c0.1-4.8,1.9-25.5-2-26.3c-3.5-0.7-1.4-2.3-5.7-4.1
			c-6.8-3.1-1.6-1.6-5.9,0.7c-2.1,1.1-1-2.3-4.9,2.5c-1.4,1.9-9.3,7.7-6,1.5c2.8-6.6-5.5-3.5-6.1-3c-4,3.5-2.2-3.2-5.1,3.8
			c-0.4,1-0.6,1.4-1.6,1.4c-1.8-0.8-7.9-1.5-10.2-1.8c-4.2-1.2,1.2-1.9,2.5-5.2c0.3-0.7,4.4,0.1,1.6-2.1c-2.5-1.9-7.1,4.6-8.5,0.9
			c-0.4-1,3.5-2.8-5.1-2.6c-4.6,0.1,2-0.6-0.2-4.6c-1.1-2.1,11.7-8.5,10.5-10.6c-2-3.4-6.8-2.7,0.5-3.2c12.6-1,12.1-12.5-1.2-14.5
			c-3.3-0.5,3.2-2,0.3-6.6c-1.5-2.4,9.9,0.2,8.5-3.9c-1.1-3.2,1.5-3.6,1.9-7.7c0.4-4.2,6.7-5-2.1-8.4c-5.7-3,1.5-3.7-4.8-5.8
			c-4.9-1.7,5.2-3.1,7.2-3.9c3.2-1.2,13.2-5.8,9.8-10.4c-5.5-7.6-7.7-5.3-0.5-8c3.9-1.5-5-1.3-1.3-6c1.9-2.4,5.9,0.5,3.5-4.5
			c-3.4-7.1,13.9,1.4,15.2-4.8c1.2-5.4-13-2.4-16.5-9.4c-2.1-4,16.7,4.4,12.4-2.7c-1.5-2.5-5.5-6.5-5.4-8.8c0.1-2.3-7.6-5.4,2.5-5.4
			c8.7,0-0.1-4.5,9.2-2.9c4.9,0.9-5.3-3.2-5.3-4.5c1.4-0.8,6.2-0.6,0.6-3.2c-5.2-2.5,12.6-1.3,5.2-7.3c-5.3-4.3,7.3,0.1,2.7-4.4
			c-3.2-3.1,7.3-0.6,3.5-3.2c-1.6-1.1-1.6-1.5-1.9-3.3c0.1-2.1,3.6-0.2,2.8-4.7c-0.4-1.9,3.1,1.7,2.8-0.7c-0.2-1.6,2.3-16.4,3.6-9.4
			c0.1,0.7,0.8,4.2,0.8,4.3c1.6,1.4,1.4,4.3,3.1,7.7c3,5.7,5.5,4.3,2.3,7.7c-1.8,2,2.9,3,3.8,8.3c0,0.3,1.9,5.7,2.9,5
			c0.7-0.5,2.1,8-0.1,9c-7.4,3.1-2.2-0.2-0.3,3.3c1.6,3-8.6,4.1-2.3,4.6c2.3,0.2,4.6-0.5,6.8-1c12.6-3.8,4.7-0.1,3.1,4.3
			c0.9,1,8.1-4.6,4.3,2.9c-5,6.6-7.6-0.7-7,16.5c0.1,2.6,1.7,1,5.3,0.6l2.4-0.3c10.2-0.9-1.1,10.7-4,11.9c-3.1,1.3-9.9,2.8-4.9,7.2
			c5.4,4.8,8.9-3.2,15.3,1.4c-3.2,6.1-7.9,7.7-0.2,10.3c6.9,1.9,1.4,1.6,3.3,4c2.5,3.2,6.9,5.1,5.7,9.6c-0.3,1.1,8.2,6.9-1.3,6.4
			c-2-0.1-6.8,0.6-4.9,4c1.3,2.4-5.1,0.9-0.5,6.8c2.4,3,14.8,6.7,12.6,9.6c-3.6,5,2.9,3.8-9.9,8.4c-11,3.9,11.5-1.8,7.5,3.7
			c-0.7,1-4.2,2.6-6.2,1.8c-3.3-1.3-8.7,2-3.8,1.5c2-0.2,1,2.3,2.8,4.8c2.3,3.2-3.7,6.8,3.6,4.6c1.5-0.4,12.2,0,9.3,2.6
			c-8.4,7.7-8-3.6-8.7,4c-0.4,4.9-2.7-2.2-3.2-1.2c-3.6,7.2-5.4-6.5-6.5-0.8c0,0.2-2.8,0.9,0.5,1.6c1.5,0.3-1-0.5-0.1,0.6
			c0.6,0.8-5.4,7.7-6.2,4.3c-0.4-1.7-1.6,0.3-4.9,0.5c-2.3,0.1-6,3.3-7.9,1.2C370.1,688.6,366.2,688.6,364.6,690z M371,592.9
			c0.8-1.6-1.9-0.6-0.7,0.4C370.7,593.2,370.7,593.2,371,592.9z M320.3,631.4c-6.4,3.7,3.1,8.2,1.7,0.8
			C321.8,631.1,321.3,631,320.3,631.4z M329.9,634.9c-1.3-1.1-1.7,2.6-0.1,0.2L329.9,634.9z M317.1,647.5 M373.9,655.8
			c3.2-0.4-5.2-4.1-3.3-1.3C371.2,655.4,372.8,655.7,373.9,655.8z M394.2,655.6c4.9-0.7-0.3-3.7-1-0.7
			C393.1,655.5,393.8,655.6,394.2,655.6z M398.9,655.3c-1.9-1.8,0.2,2.6,0.2,0.6C399.1,655.6,399,655.4,398.9,655.3z M384.5,667.9
			c5.3,0.9,0.9-5.2-0.7-1C383.6,667.5,384.1,667.7,384.5,667.9z M315.5,668.3c3.8-5.3-11.2,4.1-2.2,1.3
			C314.3,669.3,314.7,669.1,315.5,668.3z M308.9,675c3.1-1.2,0.7-0.7-0.9-2.5c-2.4-2.6-2.7,2.1-4.2,2.5
			C301.6,675.5,304.9,676.2,308.9,675z"/>
		<path class="st4" d="M413.5,640.1c0.3,1.6-3.5-0.9-1.1-0.6C412.8,639.6,413.2,639.8,413.5,640.1 M445.3,649
			c-4.6,4.2-4.7-3.2,0.1-2C446.6,647.3,445.8,648.4,445.3,649z M437.8,639.1c4.6-1.1,4.9,5.2,3.4,3.9c-1.2-1.1-4.8-0.2-4-3.3
			C437.3,639.2,437.4,639.2,437.8,639.1z M419.8,592.9c0.7,0.7-1.6,0.6-0.2,0L419.8,592.9z M420.7,594.7c-0.1-1.1,1.9-1.2,0.5,0
			C420.9,594.9,420.8,594.9,420.7,594.7z M410.5,624.5c1.7-1.4,12.7-2,4.8,0.1c-1.6,0.4-3.3,0.9-4.8,0.1L410.5,624.5z M406.7,626.5
			c-1.7,0.6-1.1-1.9,0.9-0.9C407.7,626.1,407.2,626.3,406.7,626.5z M415.7,610.3 M418.7,620.8c0.6-1.8,3.7-0.9,1,0
			C419.4,620.9,418.9,621.1,418.7,620.8z M409.7,612.9 M432.3,601.4 M429.8,683.5c-0.5,0.7-2.1-0.6-2.5,0.3
			c-0.4,0.9-1.2-1.5-1.7,4.7c-0.4,5.4-0.9,11.3,0.6,16.5c0.5,1.6-2.1,1-3.7,0.9c-3.2-0.2-2.1,0-2.1-4.2c0-3.5,1.4-18.5-1.4-19.1
			c-2.5-0.5-1-1.7-4.1-3c-4.9-2.2-1.2-1.1-4.3,0.5c-1.5,0.8-0.7-1.7-3.5,1.8c-1,1.4-6.8,5.6-4.3,1.1c2-4.8-4-2.6-4.5-2.2
			c-2.9,2.6-1.6-2.3-3.7,2.7c-0.3,0.7-0.4,1-1.1,1c-1.3-0.6-5.7-1.1-7.4-1.3c-3-0.8,0.9-1.4,1.8-3.8c0.2-0.5,3.2,0.1,1.2-1.5
			c-1.8-1.4-5.2,3.3-6.2,0.7c-0.3-0.7,2.6-2-3.7-1.9c-3.3,0.1,1.5-0.4-0.1-3.4c-0.8-1.5,8.4-6.2,7.6-7.7c-1.4-2.5-4.9-1.9,0.4-2.3
			c9.1-0.7,8.8-9.1-0.9-10.5c-2.4-0.3,2.3-1.4,0.3-4.8c-1.1-1.7,7.2,0.1,6.2-2.8c-0.8-2.4,1.1-2.6,1.4-5.6c0.3-3,4.8-3.6-1.5-6.1
			c-4.2-2.2,1.1-2.6-3.5-4.2c-3.6-1.2,3.7-2.3,5.2-2.8c2.3-0.9,9.5-4.2,7.1-7.6c-4-5.5-5.6-3.8-0.4-5.8c2.8-1.1-3.6-0.9-0.9-4.4
			c1.4-1.7,4.3,0.4,2.5-3.3c-2.4-5.1,10.1,1,11-3.5c0.9-3.9-9.4-1.7-12-6.8c-1.5-2.9,12.1,3.2,9-1.9c-1.1-1.8-4-4.7-3.9-6.4
			c0.1-1.7-5.5-3.9,1.8-3.9c6.3,0-0.1-3.2,6.6-2.1c3.6,0.6-3.8-2.3-3.8-3.2c1-0.6,4.5-0.4,0.4-2.3c-3.8-1.8,9.1-0.9,3.7-5.3
			c-3.8-3.1,5.3,0.1,1.9-3.2c-2.3-2.3,5.3-0.4,2.6-2.4c-1.1-0.8-1.2-1.1-1.4-2.4c0.1-1.5,2.6-0.1,2-3.4c-0.3-1.4,2.2,1.2,2.1-0.5
			c-0.1-1.2,1.6-11.9,2.6-6.8c0.1,0.5,0.6,3.1,0.6,3.1c1.2,1,1,3.1,2.3,5.6c2.2,4.1,4,3.1,1.6,5.6c-1.3,1.4,2.1,2.2,2.7,6
			c0,0.2,1.4,4.1,2.1,3.6c0.5-0.3,1.5,5.8,0,6.5c-5.4,2.3-1.6-0.1-0.2,2.4c1.2,2.2-6.2,3-1.6,3.3c1.7,0.1,3.3-0.3,4.9-0.7
			c9.1-2.7,3.4-0.1,2.3,3.1c0.6,0.7,5.9-3.3,3.1,2.1c-3.6,4.8-5.5-0.5-5.1,11.9c0.1,1.9,1.2,0.7,3.8,0.4l1.8-0.2
			c7.4-0.6-0.8,7.8-2.9,8.6c-2.2,0.9-7.2,2-3.5,5.2c3.9,3.5,6.5-2.3,11,1c-2.3,4.4-5.7,5.6-0.1,7.5c5,1.3,1,1.1,2.4,2.9
			c1.8,2.3,5,3.7,4.1,6.9c-0.2,0.8,6,5-1,4.7c-1.4-0.1-4.9,0.5-3.6,2.9c0.9,1.7-3.7,0.7-0.4,4.9c1.7,2.2,10.7,4.8,9.1,7
			c-2.6,3.6,2.1,2.8-7.2,6.1c-8,2.8,8.4-1.3,5.5,2.7c-0.5,0.7-3,1.9-4.5,1.3c-2.4-0.9-6.3,1.4-2.8,1.1c1.4-0.1,0.7,1.7,2,3.5
			c1.6,2.3-2.7,4.9,2.6,3.4c1.1-0.3,8.8,0,6.7,1.9c-6.1,5.5-5.8-2.6-6.3,2.9c-0.3,3.5-2-1.6-2.3-0.9c-2.6,5.2-3.9-4.7-4.7-0.6
			c0,0.1-2,0.7,0.4,1.1c1.1,0.2-0.7-0.4-0.1,0.5c0.4,0.6-3.9,5.5-4.5,3.1c-0.3-1.3-1.2,0.2-3.5,0.3c-1.7,0.1-4.3,2.4-5.7,0.9
			C433.8,682.5,430.9,682.5,429.8,683.5z M434.4,613.2c0.6-1.2-1.4-0.5-0.5,0.3C434.2,613.4,434.2,613.4,434.4,613.2z M397.7,641.1
			c-4.7,2.7,2.3,5.9,1.2,0.6C398.8,640.9,398.4,640.8,397.7,641.1z M404.7,643.6c-0.9-0.8-1.2,1.9-0.1,0.2L404.7,643.6z
			 M395.4,652.7 M436.5,658.7c2.4-0.3-3.8-3-2.4-1C434.6,658.5,435.7,658.7,436.5,658.7z M451.3,658.6c3.5-0.5-0.2-2.7-0.7-0.5
			C450.4,658.6,451,658.6,451.3,658.6z M454.6,658.4c-1.4-1.3,0.1,1.9,0.2,0.4C454.8,658.6,454.7,658.5,454.6,658.4z M444.2,667.5
			c3.9,0.6,0.6-3.8-0.5-0.7C443.5,667.2,443.9,667.4,444.2,667.5z M394.2,667.8c2.8-3.9-8.1,2.9-1.6,0.9
			C393.4,668.5,393.6,668.4,394.2,667.8z M389.4,672.7c2.3-0.9,0.5-0.5-0.7-1.8c-1.7-1.9-1.9,1.5-3.1,1.8
			C384.1,673,386.5,673.5,389.4,672.7z"/>
		<path class="st4" d="M483.3,640.2c0.4,1.9-4.3-1.1-1.4-0.7C482.5,639.5,482.9,639.8,483.3,640.2 M522.3,651
			c-5.7,5.2-5.7-4,0.1-2.4C523.9,649,522.9,650.4,522.3,651z M513.1,638.9c5.6-1.4,6,6.4,4.2,4.8c-1.5-1.4-5.9-0.2-4.9-4.1
			C512.5,639,512.6,639.1,513.1,638.9z M491,582.3c0.9,0.9-1.9,0.7-0.2,0L491,582.3z M492.1,584.4c-0.1-1.3,2.3-1.5,0.6,0.1
			C492.4,584.7,492.3,584.7,492.1,584.4z M479.6,621c2-1.8,15.6-2.5,5.9,0.2c-2,0.6-4,1.1-5.9,0.2L479.6,621z M475,623.5
			c-2.1,0.7-1.4-2.4,1.1-1.1C476.2,623,475.5,623.3,475,623.5z M486,603.6 M489.7,616.5c0.7-2.1,4.6-1.1,1.2,0
			C490.5,616.6,489.9,616.8,489.7,616.5z M478.6,606.7 M506.3,592.6 M503.3,693.5c-0.6,0.9-2.6-0.8-3.1,0.4c-0.5,1.1-1.4-1.8-2,5.7
			c-0.5,6.6-1.1,13.9,0.8,20.3c0.6,2-2.6,1.3-4.5,1.1c-3.9-0.2-2.6,0-2.5-5.1c0-4.2,1.7-22.7-1.7-23.4c-3.1-0.6-1.2-2.1-5-3.7
			c-6-2.8-1.5-1.4-5.2,0.6c-1.9,1-0.9-2-4.3,2.2c-1.3,1.7-8.3,6.8-5.3,1.3c2.5-5.8-4.9-3.1-5.5-2.6c-3.6,3.2-1.9-2.9-4.6,3.4
			c-0.4,0.9-0.5,1.3-1.4,1.2c-1.6-0.7-7-1.3-9.1-1.6c-3.7-1,1-1.7,2.2-4.6c0.3-0.6,3.9,0.1,1.4-1.8c-2.2-1.7-6.3,4.1-7.6,0.8
			c-0.3-0.9,3.1-2.5-4.5-2.3c-4,0.1,1.8-0.5-0.2-4.1c-1-1.9,10.4-7.6,9.3-9.4c-1.8-3-6-2.4,0.5-2.9c11.2-0.9,10.7-11.1-1.1-12.8
			c-2.9-0.4,2.8-1.8,0.3-5.9c-1.3-2.1,8.8,0.2,7.6-3.5c-1-2.9,1.3-3.2,1.7-6.8c0.3-3.7,5.9-4.4-1.8-7.5c-5.1-2.7,1.3-3.2-4.3-5.1
			c-4.4-1.5,4.6-2.8,6.4-3.4c2.8-1.1,11.7-5.2,8.7-9.3c-4.9-6.7-6.8-4.7-0.5-7.1c3.4-1.3-4.5-1.1-1.1-5.4c1.7-2.1,5.2,0.4,3.1-4
			c-3-6.3,12.3,1.2,13.5-4.3c1.1-4.8-11.5-2.1-14.7-8.3c-1.8-3.6,14.8,3.9,11.1-2.4c-1.3-2.2-4.9-5.8-4.8-7.8
			c0.1-2.1-6.8-4.8,2.3-4.8c7.8,0-0.1-4,8.1-2.5c4.4,0.8-4.7-2.8-4.7-4c1.2-0.7,5.5-0.5,0.5-2.8c-4.7-2.2,11.2-1.1,4.6-6.5
			c-4.7-3.9,6.5,0.1,2.4-3.9c-2.8-2.8,6.5-0.5,3.1-2.9c-1.4-1-1.5-1.4-1.7-3c0.1-1.9,3.2-0.2,2.5-4.1c-0.3-1.7,2.8,1.5,2.5-0.6
			c-0.2-1.4,2-14.6,3.2-8.3c0.1,0.6,0.7,3.7,0.8,3.8c1.5,1.2,1.2,3.9,2.8,6.8c2.7,5.1,4.9,3.8,2,6.8c-1.6,1.7,2.5,2.7,3.4,7.4
			c0,0.2,1.7,5,2.6,4.5c0.7-0.4,1.9,7.1-0.1,8c-6.6,2.8-1.9-0.1-0.3,3c1.5,2.7-7.6,3.7-2,4.1c2.1,0.2,4.1-0.4,6-0.9
			c11.2-3.4,4.2-0.1,2.8,3.8c0.8,0.9,7.2-4.1,3.8,2.5c-4.4,5.8-6.7-0.6-6.2,14.7c0.1,2.3,1.5,0.9,4.7,0.5l2.2-0.3
			c9.1-0.8-1,9.5-3.5,10.6c-2.7,1.1-8.8,2.5-4.3,6.4c4.8,4.3,7.9-2.8,13.6,1.2c-2.8,5.4-7,6.9-0.2,9.1c6.1,1.6,1.2,1.4,2.9,3.6
			c2.2,2.9,6.2,4.5,5,8.5c-0.3,1,7.3,6.2-1.2,5.7c-1.8-0.1-6,0.6-4.4,3.6c1.1,2.1-4.6,0.8-0.5,6c2.1,2.7,13.1,5.9,11.2,8.5
			c-3.2,4.4,2.6,3.4-8.8,7.4c-9.8,3.5,10.3-1.6,6.7,3.3c-0.6,0.9-3.7,2.3-5.5,1.6c-2.9-1.2-7.8,1.7-3.4,1.3c1.8-0.2,0.9,2,2.5,4.3
			c2,2.8-3.3,6,3.2,4.1c1.3-0.4,10.8,0,8.2,2.3c-7.4,6.8-7.1-3.2-7.7,3.5c-0.4,4.3-2.4-1.9-2.9-1.1c-3.2,6.4-4.8-5.8-5.8-0.7
			c0,0.1-2.4,0.8,0.5,1.4c1.4,0.3-0.9-0.5-0.1,0.6c0.6,0.7-4.8,6.8-5.5,3.8c-0.4-1.5-1.5,0.3-4.3,0.4c-2,0.1-5.3,2.9-7,1.1
			C508.2,692.2,504.7,692.2,503.3,693.5z M509,607.1c0.7-1.4-1.7-0.6-0.7,0.4C508.7,607.4,508.7,607.5,509,607.1z M463.9,641.4
			c-5.7,3.3,2.8,7.3,1.5,0.7C465.2,641.1,464.7,641.1,463.9,641.4z M472.4,644.5c-1.1-0.9-1.5,2.3-0.1,0.2L472.4,644.5z
			 M461.1,655.7 M511.5,663c2.9-0.4-4.6-3.7-2.9-1.2C509.1,662.7,510.5,663,511.5,663z M529.6,662.9c4.3-0.6-0.3-3.3-0.9-0.6
			C528.6,662.8,529.3,662.9,529.6,662.9z M533.7,662.6c-1.7-1.6,0.2,2.3,0.2,0.5C533.9,662.9,533.8,662.7,533.7,662.6z M520.9,673.8
			c4.7,0.8,0.8-4.7-0.6-0.9C520.2,673.5,520.6,673.6,520.9,673.8z M459.6,674.2c3.4-4.7-9.9,3.6-2,1.1
			C458.6,675,458.9,674.9,459.6,674.2z M453.7,680.1c2.8-1.1,0.6-0.6-0.8-2.2c-2.1-2.4-2.4,1.9-3.8,2.2
			C447.2,680.6,450.2,681.2,453.7,680.1z"/>
		<path class="st4" d="M547.8,643.3c0.3,1.4-3.1-0.8-1-0.5C547.2,642.8,547.5,643,547.8,643.3 M575.4,651c-4,3.7-4.1-2.8,0.1-1.7
			C576.5,649.5,575.8,650.5,575.4,651z M568.9,642.4c4-1,4.2,4.5,3,3.4c-1.1-1-4.2-0.2-3.5-2.9C568.5,642.5,568.5,642.5,568.9,642.4
			z M553.3,602.3c0.6,0.6-1.4,0.5-0.2,0L553.3,602.3z M554,603.8c-0.1-0.9,1.6-1,0.4,0C554.2,604,554.1,604,554,603.8z M545.2,629.7
			c1.4-1.2,11.1-1.8,4.2,0.1c-1.4,0.4-2.8,0.8-4.2,0.1L545.2,629.7z M541.9,631.5c-1.5,0.5-1-1.7,0.8-0.8
			C542.8,631.1,542.3,631.3,541.9,631.5z M549.7,617.3 M552.3,626.5c0.5-1.5,3.2-0.8,0.8,0C552.9,626.6,552.5,626.7,552.3,626.5z
			 M544.5,619.6 M564.1,609.6 M562,681c-0.4,0.7-1.8-0.5-2.2,0.3c-0.3,0.8-1-1.3-1.4,4c-0.4,4.7-0.8,9.8,0.6,14.3
			c0.4,1.4-1.8,0.9-3.2,0.8c-2.8-0.2-1.8,0-1.8-3.6c0-3,1.2-16.1-1.2-16.6c-2.2-0.5-0.9-1.5-3.6-2.6c-4.3-1.9-1-1-3.7,0.4
			c-1.3,0.7-0.6-1.4-3.1,1.6c-0.9,1.2-5.9,4.8-3.8,0.9c1.8-4.1-3.5-2.2-3.9-1.9c-2.5,2.2-1.4-2-3.2,2.4c-0.3,0.6-0.3,0.9-1,0.9
			c-1.1-0.5-5-0.9-6.4-1.1c-2.6-0.7,0.7-1.2,1.6-3.3c0.2-0.4,2.8,0.1,1-1.3c-1.6-1.2-4.5,2.9-5.4,0.6c-0.2-0.6,2.2-1.8-3.2-1.6
			c-2.9,0.1,1.3-0.4-0.1-2.9c-0.7-1.3,7.3-5.4,6.6-6.7c-1.2-2.2-4.3-1.7,0.3-2c7.9-0.6,7.6-7.9-0.8-9.1c-2-0.3,2-1.2,0.2-4.2
			c-0.9-1.5,6.2,0.1,5.4-2.4c-0.7-2,0.9-2.3,1.2-4.8c0.2-2.6,4.2-3.1-1.3-5.3c-3.6-1.9,0.9-2.3-3-3.6c-3.1-1,3.3-2,4.5-2.4
			c2-0.8,8.3-3.7,6.2-6.6c-3.5-4.8-4.8-3.3-0.3-5c2.4-0.9-3.2-0.8-0.8-3.8c1.2-1.5,3.7,0.3,2.2-2.9c-2.1-4.5,8.7,0.9,9.6-3
			c0.7-3.4-8.2-1.5-10.4-5.9c-1.3-2.5,10.5,2.8,7.8-1.7c-0.9-1.6-3.5-4.1-3.4-5.6c0.1-1.5-4.8-3.4,1.6-3.4c5.5,0,0-2.8,5.8-1.8
			c3.1,0.5-3.3-2-3.3-2.8c0.9-0.5,3.9-0.4,0.4-2c-3.3-1.6,7.9-0.8,3.3-4.6c-3.3-2.7,4.6,0.1,1.7-2.8c-2-2,4.6-0.4,2.2-2
			c-1-0.7-1-1-1.2-2.1c0.1-1.3,2.3-0.1,1.7-2.9c-0.2-1.2,1.9,1,1.8-0.4c-0.1-1,1.4-10.3,2.3-5.9c0.1,0.5,0.5,2.7,0.5,2.7
			c1,0.9,0.9,2.7,2,4.8c1.9,3.6,3.4,2.7,1.4,4.8c-1.2,1.2,1.8,1.9,2.4,5.2c0,0.2,1.2,3.6,1.8,3.2c0.5-0.3,1.3,5,0,5.7
			c-4.7,2-1.4-0.1-0.2,2.1c1,1.9-5.4,2.6-1.4,2.9c1.5,0.1,2.9-0.3,4.3-0.6c7.9-2.4,2.9-0.1,2,2.7c0.5,0.6,5.1-2.9,2.7,1.8
			c-3.1,4.1-4.8-0.4-4.4,10.4c0.1,1.6,1,0.6,3.3,0.4l1.5-0.2c6.4-0.5-0.7,6.8-2.5,7.5c-1.9,0.8-6.2,1.8-3.1,4.6c3.4,3,5.6-2,9.6,0.9
			c-2,3.8-4.9,4.9-0.1,6.5c4.3,1.2,0.9,1,2.1,2.5c1.6,2,4.4,3.2,3.6,6c-0.2,0.7,5.2,4.4-0.8,4.1c-1.3-0.1-4.3,0.4-3.1,2.5
			c0.8,1.5-3.2,0.6-0.3,4.3c1.5,1.9,9.3,4.2,7.9,6c-2.3,3.1,1.8,2.4-6.2,5.3c-7,2.5,7.3-1.1,4.8,2.4c-0.4,0.6-2.6,1.6-3.9,1.1
			c-2.1-0.8-5.5,1.2-2.4,0.9c1.2-0.1,0.6,1.4,1.8,3c1.4,2-2.4,4.2,2.3,2.9c0.9-0.3,7.7,0,5.8,1.7c-5.3,4.8-5-2.2-5.5,2.5
			c-0.3,3.1-1.7-1.4-2-0.8c-2.3,4.5-3.4-4.1-4.1-0.5c0,0.1-1.7,0.6,0.3,1c1,0.2-0.6-0.3-0.1,0.4c0.4,0.5-3.4,4.8-3.9,2.7
			c-0.3-1.1-1,0.2-3.1,0.3c-1.4,0.1-3.8,2.1-5,0.8C565.4,680.1,562.9,680.1,562,681z M566,619.9c0.5-1-1.2-0.4-0.5,0.3
			C565.8,620.1,565.8,620.1,566,619.9z M534.1,644.1c-4,2.3,2,5.1,1.1,0.5C535,643.9,534.7,643.9,534.1,644.1z M540.1,646.3
			c-0.8-0.7-1.1,1.6-0.1,0.2L540.1,646.3z M532.1,654.2 M567.8,659.5c2-0.3-3.3-2.6-2.1-0.8C566.1,659.2,567.1,659.4,567.8,659.5z
			 M580.6,659.3c3.1-0.5-0.2-2.3-0.6-0.4C579.9,659.3,580.3,659.3,580.6,659.3z M583.5,659.1c-1.2-1.1,0.1,1.6,0.1,0.4
			C583.7,659.4,583.6,659.3,583.5,659.1z M574.4,667.1c3.4,0.6,0.5-3.3-0.4-0.6C573.9,666.8,574.2,666.9,574.4,667.1z M531,667.4
			c2.4-3.3-7,2.6-1.4,0.8C530.3,668,530.5,667.8,531,667.4z M526.9,671.6c2-0.7,0.5-0.4-0.6-1.6c-1.5-1.7-1.7,1.3-2.7,1.5
			C522.3,671.9,524.3,672.3,526.9,671.6z"/>
		<path class="st4" d="M594.6,647.1c0.4,1.8-3.9-1-1.3-0.7C593.8,646.5,594.2,646.8,594.6,647.1 M630.3,657
			c-5.2,4.7-5.2-3.6,0.1-2.2C631.7,655.2,630.8,656.4,630.3,657z M621.8,645.9c5.1-1.3,5.5,5.8,3.9,4.4c-1.4-1.3-5.4-0.2-4.5-3.7
			C621.3,646.1,621.4,646.1,621.8,645.9z M601.7,594.2c0.8,0.8-1.8,0.7-0.2,0L601.7,594.2z M602.6,596.1c-0.1-1.2,2.1-1.3,0.6,0.1
			C602.9,596.4,602.8,596.4,602.6,596.1z M591.2,629.6c1.9-1.6,14.3-2.3,5.4,0.2c-1.8,0.5-3.7,1-5.4,0.2L591.2,629.6z M587,631.9
			c-1.9,0.7-1.2-2.2,1.1-1C588.1,631.4,587.5,631.6,587,631.9z M597,613.6 M600.4,625.4c0.7-2,4.2-1,1.1,0
			C601.2,625.6,600.7,625.7,600.4,625.4z M590.4,616.5 M615.7,603.6 M612.9,695.8c-0.6,0.8-2.4-0.7-2.8,0.4c-0.4,1-1.3-1.7-1.9,5.2
			c-0.5,6-1,12.7,0.7,18.5c0.5,1.8-2.4,1.1-4.1,1c-3.6-0.2-2.4,0-2.3-4.7c0-3.9,1.5-20.8-1.6-21.4c-2.8-0.6-1.1-1.9-4.6-3.4
			c-5.5-2.5-1.3-1.3-4.8,0.5c-1.7,0.9-0.8-1.9-4,2c-1.2,1.6-7.6,6.2-4.8,1.2c2.3-5.3-4.5-2.9-5-2.4c-3.3,2.9-1.8-2.6-4.2,3.1
			c-0.3,0.8-0.4,1.2-1.3,1.1c-1.5-0.7-6.4-1.2-8.3-1.5c-3.4-0.9,1-1.6,2-4.2c0.2-0.6,3.6,0.1,1.3-1.7c-2-1.6-5.8,3.7-6.9,0.8
			c-0.3-0.8,2.9-2.3-4.1-2.1c-3.7,0.1,1.6-0.5-0.1-3.8c-0.9-1.7,9.5-6.9,8.5-8.6c-1.6-2.8-5.5-2.2,0.4-2.6c10.2-0.8,9.8-10.2-1-11.7
			c-2.6-0.4,2.6-1.6,0.3-5.4c-1.2-1.9,8,0.2,6.9-3.2c-0.9-2.6,1.2-3,1.5-6.3c0.3-3.4,5.4-4.1-1.7-6.9c-4.7-2.5,1.2-3-3.9-4.7
			c-4-1.3,4.2-2.5,5.8-3.1c2.6-1,10.7-4.7,8-8.5c-4.5-6.2-6.2-4.3-0.4-6.5c3.2-1.2-4.1-1.1-1-4.9c1.5-2,4.8,0.4,2.8-3.7
			c-2.7-5.7,11.3,1.1,12.4-3.9c1-4.4-10.5-2-13.4-7.6c-1.7-3.3,13.6,3.6,10.1-2.2c-1.2-2-4.5-5.3-4.4-7.2c0.1-1.9-6.2-4.4,2.1-4.4
			c7.1,0-0.1-3.6,7.5-2.3c4,0.7-4.3-2.6-4.3-3.6c1.1-0.7,5-0.5,0.5-2.6c-4.3-2,10.2-1,4.2-5.9c-4.3-3.5,5.9,0.1,2.2-3.6
			c-2.6-2.5,6-0.5,2.9-2.6c-1.3-0.9-1.3-1.3-1.5-2.7c0.1-1.7,2.9-0.2,2.3-3.8c-0.3-1.6,2.5,1.3,2.3-0.6c-0.1-1.3,1.9-13.3,2.9-7.6
			c0.1,0.6,0.6,3.4,0.7,3.5c1.3,1.1,1.1,3.5,2.5,6.2c2.4,4.6,4.4,3.5,1.8,6.3c-1.5,1.6,2.3,2.5,3.1,6.7c0,0.2,1.5,4.6,2.4,4.1
			c0.6-0.4,1.7,6.5-0.1,7.3c-6,2.6-1.8-0.1-0.2,2.7c1.3,2.5-7,3.4-1.8,3.7c1.9,0.1,3.7-0.4,5.5-0.8c10.2-3.1,3.8-0.1,2.5,3.5
			c0.7,0.8,6.6-3.7,3.5,2.3c-4.1,5.3-6.1-0.6-5.7,13.4c0.1,2.1,1.4,0.8,4.3,0.5l2-0.2c8.3-0.7-0.9,8.7-3.2,9.7c-2.5,1-8,2.3-4,5.9
			c4.4,3.9,7.3-2.6,12.4,1.1c-2.6,4.9-6.4,6.3-0.2,8.4c5.6,1.5,1.1,1.3,2.7,3.3c2,2.6,5.6,4.1,4.6,7.8c-0.2,0.9,6.7,5.6-1.1,5.2
			c-1.6-0.1-5.5,0.5-4,3.3c1,1.9-4.2,0.8-0.4,5.5c2,2.5,12,5.4,10.2,7.8c-3,4,2.3,3.1-8,6.8c-9,3.2,9.4-1.5,6.1,3
			c-0.6,0.8-3.4,2.1-5,1.5c-2.7-1.1-7.1,1.6-3.1,1.2c1.6-0.2,0.8,1.9,2.3,3.9c1.8,2.6-3,5.5,2.9,3.8c1.2-0.4,9.9,0,7.5,2.1
			c-6.8,6.2-6.5-2.9-7,3.2c-0.4,4-2.2-1.8-2.6-1c-3,5.8-4.4-5.3-5.3-0.6c0,0.1-2.2,0.7,0.4,1.3c1.3,0.3-0.8-0.4-0.1,0.5
			c0.5,0.7-4.4,6.2-5,3.5c-0.3-1.4-1.3,0.3-4,0.4c-1.9,0.1-4.8,2.7-6.4,1C617.4,694.7,614.1,694.7,612.9,695.8z M618.1,616.9
			c0.6-1.3-1.5-0.5-0.6,0.3C617.8,617.2,617.8,617.2,618.1,616.9z M576.8,648.2c-5.2,3,2.6,6.6,1.4,0.7
			C578.1,648,577.6,647.9,576.8,648.2z M584.7,651c-1-0.9-1.4,2.1-0.1,0.2L584.7,651z M574.3,661.3 M620.4,668
			c2.6-0.3-4.2-3.4-2.7-1.1C618.2,667.7,619.5,667.9,620.4,668z M637,667.9c4-0.6-0.3-3-0.8-0.5C636,667.8,636.6,667.8,637,667.9z
			 M640.7,667.6c-1.5-1.4,0.2,2.1,0.2,0.5C640.9,667.9,640.8,667.8,640.7,667.6z M629,677.9c4.3,0.7,0.7-4.3-0.5-0.8
			C628.3,677.6,628.7,677.7,629,677.9z M572.9,678.2c3.1-4.3-9.1,3.3-1.8,1C572,679,572.3,678.8,572.9,678.2z M567.6,683.6
			c2.5-1,0.6-0.5-0.7-2c-1.9-2.2-2.2,1.7-3.4,2C561.6,684.1,564.3,684.6,567.6,683.6z"/>
		<path class="st4" d="M1110.2,633.8c-0.6,2.7,6-1.5,1.9-1C1111.4,632.9,1110.8,633.3,1110.2,633.8 M1056,648.9
			c7.9,7.2,8-5.5-0.1-3.4C1053.9,646,1055.3,647.9,1056,648.9z M1068.9,632c-7.8-1.9-8.3,8.9-5.9,6.6c2.1-1.9,8.2-0.3,6.8-5.7
			C1069.6,632.2,1069.6,632.2,1068.9,632z M1099.5,553.3c-1.3,1.2,2.7,1,0.3,0L1099.5,553.3z M1098.1,556.3c0.2-1.8-3.2-2.1-0.8,0.1
			C1097.6,556.8,1097.8,556.7,1098.1,556.3z M1115.3,607.2c-2.8-2.4-21.7-3.5-8.2,0.2c2.8,0.8,5.6,1.5,8.2,0.3L1115.3,607.2z
			 M1121.8,610.6c2.9,1,1.9-3.3-1.6-1.6C1120.1,609.9,1121,610.3,1121.8,610.6z M1106.5,582.9 M1101.4,600.9c-1-3-6.3-1.5-1.6,0.1
			C1100.2,601.1,1101,601.3,1101.4,600.9z M1116.7,587.3 M1078.2,567.7 M1082.5,707.8c0.9,1.3,3.6-1.1,4.3,0.5
			c0.6,1.6,2-2.6,2.8,7.9c0.7,9.2,1.5,19.2-1.1,28.1c-0.8,2.8,3.6,1.7,6.3,1.6c5.4-0.3,3.6,0,3.5-7.1c-0.1-5.9-2.3-31.5,2.4-32.5
			c4.3-0.9,1.7-2.9,7-5.1c8.4-3.8,2-1.9,7.3,0.8c2.6,1.4,1.2-2.8,6,3.1c1.8,2.4,11.5,9.5,7.4,1.8c-3.5-8.1,6.8-4.4,7.6-3.7
			c5,4.4,2.7-4,6.3,4.7c0.5,1.2,0.7,1.8,1.9,1.7c2.3-1,9.8-1.8,12.6-2.2c5.2-1.4-1.5-2.4-3.1-6.4c-0.3-0.9-5.5,0.2-2-2.5
			c3-2.4,8.8,5.7,10.5,1.1c0.5-1.2-4.4-3.5,6.3-3.2c5.6,0.1-2.5-0.7,0.2-5.7c1.4-2.6-14.4-10.5-12.9-13.1c2.4-4.2,8.4-3.3-0.6-4
			c-15.6-1.2-14.9-15.5,1.5-17.9c4-0.6-3.9-2.5-0.4-8.2c1.8-3-12.2,0.2-10.5-4.8c1.3-4-1.9-4.5-2.3-9.5c-0.5-5.2-8.2-6.2,2.5-10.4
			c7.1-3.7-1.8-4.5,6-7.1c6.1-2-6.4-3.8-8.9-4.8c-4-1.5-16.3-7.2-12.1-12.9c6.8-9.4,9.5-6.5,0.6-9.9c-4.8-1.8,6.2-1.6,1.6-7.5
			c-2.3-3-7.3,0.6-4.3-5.6c4.2-8.7-17.2,1.7-18.8-5.9c-1.5-6.7,16-3,20.4-11.6c2.6-5-20.6,5.4-15.4-3.3c1.8-3.1,6.8-8,6.7-10.9
			c-0.1-2.9,9.4-6.6-3.1-6.7c-10.8,0,0.1-5.5-11.3-3.5c-6.1,1.1,6.6-3.9,6.6-5.5c-1.7-1-7.6-0.7-0.7-3.9c6.5-3.1-15.5-1.6-6.4-9
			c6.6-5.4-9,0.1-3.3-5.5c3.9-3.9-9.1-0.8-4.4-4c1.9-1.3,2-1.9,2.3-4.1c-0.2-2.6-4.4-0.2-3.4-5.7c0.4-2.4-3.8,2-3.5-0.8
			c0.2-2-2.8-20.3-4.4-11.6c-0.2,0.9-0.9,5.2-1,5.3c-2,1.7-1.7,5.4-3.8,9.5c-3.7,7.1-6.8,5.3-2.8,9.5c2.3,2.4-3.5,3.8-4.7,10.2
			c-0.1,0.3-2.3,7-3.6,6.2c-0.9-0.6-2.6,9.8,0.1,11.1c9.2,3.9,2.7-0.2,0.3,4.1c-2,3.8,10.6,5.1,2.8,5.7c-2.9,0.2-5.7-0.6-8.4-1.3
			c-15.6-4.7-5.8-0.2-3.9,5.3c-1.1,1.3-10-5.6-5.3,3.5c6.2,8.1,9.3-0.9,8.6,20.4c-0.1,3.2-2.1,1.3-6.6,0.7l-3-0.4
			c-12.6-1.1,1.4,13.2,4.9,14.7c3.8,1.6,12.2,3.5,6,8.9c-6.7,5.9-11-3.9-18.8,1.7c3.9,7.5,9.7,9.6,0.3,12.7c-8.5,2.3-1.7,1.9-4,4.9
			c-3.1,4-8.6,6.3-7,11.8c0.4,1.3-10.1,8.6,1.6,8c2.5-0.1,8.4,0.8,6.1,5c-1.6,2.9,6.3,1.2,0.6,8.3c-3,3.8-18.2,8.2-15.6,11.9
			c4.5,6.1-3.6,4.8,12.2,10.3c13.6,4.8-14.3-2.2-9.3,4.6c0.9,1.2,5.2,3.2,7.6,2.2c4-1.6,10.8,2.4,4.7,1.8c-2.5-0.2-1.3,2.8-3.5,6
			c-2.8,3.9,4.6,8.3-4.4,5.7c-1.9-0.5-15-0.1-11.4,3.2c10.3,9.5,9.9-4.4,10.7,4.9c0.6,6,3.4-2.7,4-1.5c4.5,8.9,6.6-8,8-1
			c0,0.2,3.4,1.1-0.6,2c-1.9,0.4,1.2-0.7,0.1,0.8c-0.8,1,6.7,9.5,7.6,5.3c0.5-2.1,2,0.4,6,0.6c2.8,0.1,7.4,4.1,9.8,1.5
			C1075.6,706.1,1080.5,706.1,1082.5,707.8z M1074.6,587.9c-0.9-2,2.3-0.8,0.9,0.5C1074.9,588.3,1074.9,588.3,1074.6,587.9z
			 M1137.2,635.5c7.9,4.6-3.9,10.1-2.1,1C1135.4,635.1,1136,635,1137.2,635.5z M1125.3,639.7c1.6-1.3,2.1,3.2,0.1,0.3L1125.3,639.7z
			 M1141.1,655.3 M1071.1,665.6c-4-0.5,6.4-5.1,4.1-1.6C1074.3,665.1,1072.4,665.5,1071.1,665.6z M1045.9,665.3
			c-6-0.9,0.4-4.5,1.2-0.8C1047.3,665.3,1046.4,665.3,1045.9,665.3z M1040.2,665c2.3-2.2-0.3,3.2-0.3,0.7
			C1039.9,665.4,1040,665.2,1040.2,665z M1057.9,680.6c-6.6,1.1-1.1-6.5,0.8-1.2C1059,680.1,1058.5,680.3,1057.9,680.6z
			 M1143.1,681.1c-4.7-6.6,13.8,5,2.8,1.6C1144.6,682.2,1144.1,682,1143.1,681.1z M1151.3,689.3c-3.8-1.5-0.9-0.8,1.1-3.1
			c3-3.3,3.3,2.6,5.2,3C1160.3,689.9,1156.3,690.8,1151.3,689.3z"/>
		<path class="st4" d="M1016.1,630.1c-0.5,2.2,4.9-1.2,1.6-0.8C1017.1,629.3,1016.6,629.6,1016.1,630.1 M972.2,642.3
			c6.4,5.8,6.4-4.5-0.1-2.7C970.5,640,971.6,641.5,972.2,642.3z M982.6,628.6c-6.3-1.6-6.7,7.2-4.7,5.4c1.7-1.6,6.6-0.2,5.5-4.6
			C983.3,628.8,983.2,628.8,982.6,628.6z M1007.4,564.9c-1,1,2.2,0.8,0.3,0L1007.4,564.9z M1006.3,567.3c0.1-1.5-2.6-1.7-0.7,0.1
			C1005.9,567.7,1006,567.7,1006.3,567.3z M1020.3,608.5c-2.3-2-17.6-2.8-6.6,0.2c2.2,0.6,4.5,1.2,6.6,0.2L1020.3,608.5z
			 M1025.5,611.3c2.3,0.8,1.5-2.7-1.3-1.3C1024.1,610.7,1024.9,611,1025.5,611.3z M1013.1,588.9 M1008.9,603.4
			c-0.8-2.4-5.1-1.2-1.3,0C1008,603.6,1008.7,603.8,1008.9,603.4z M1021.4,592.4 M990.2,576.5 M993.6,690c0.7,1,2.9-0.9,3.4,0.4
			c0.5,1.3,1.6-2.1,2.3,6.4c0.6,7.4,1.2,15.6-0.9,22.8c-0.7,2.3,2.9,1.4,5.1,1.3c4.4-0.3,2.9,0,2.9-5.8c-0.1-4.8-1.9-25.5,2-26.3
			c3.5-0.7,1.4-2.3,5.7-4.1c6.8-3.1,1.6-1.6,5.9,0.7c2.1,1.1,1-2.3,4.9,2.5c1.4,1.9,9.3,7.7,6,1.5c-2.8-6.6,5.5-3.5,6.1-3
			c4,3.5,2.2-3.2,5.1,3.8c0.4,1,0.6,1.4,1.6,1.4c1.8-0.8,7.9-1.5,10.2-1.8c4.2-1.2-1.2-1.9-2.5-5.2c-0.3-0.7-4.4,0.1-1.6-2.1
			c2.5-1.9,7.1,4.6,8.5,0.9c0.4-1-3.5-2.8,5.1-2.6c4.6,0.1-2-0.6,0.2-4.6c1.1-2.1-11.7-8.5-10.5-10.6c2-3.4,6.8-2.7-0.5-3.2
			c-12.6-1-12.1-12.5,1.2-14.5c3.3-0.5-3.2-2-0.3-6.6c1.5-2.4-9.9,0.2-8.5-3.9c1.1-3.2-1.5-3.6-1.9-7.7c-0.4-4.2-6.7-5,2.1-8.4
			c5.7-3-1.5-3.7,4.8-5.8c4.9-1.7-5.2-3.1-7.2-3.9c-3.2-1.2-13.2-5.8-9.8-10.4c5.5-7.6,7.7-5.3,0.5-8c-3.9-1.5,5-1.3,1.3-6
			c-1.9-2.4-5.9,0.5-3.5-4.5c3.4-7.1-13.9,1.4-15.2-4.8c-1.2-5.4,13-2.4,16.5-9.4c2.1-4-16.7,4.4-12.4-2.7c1.5-2.5,5.5-6.5,5.4-8.8
			c-0.1-2.3,7.6-5.4-2.5-5.4c-8.7,0,0.1-4.5-9.2-2.9c-4.9,0.9,5.3-3.2,5.3-4.5c-1.4-0.8-6.2-0.6-0.6-3.2c5.2-2.5-12.6-1.3-5.2-7.3
			c5.3-4.3-7.3,0.1-2.7-4.4c3.2-3.1-7.3-0.6-3.5-3.2c1.6-1.1,1.6-1.5,1.9-3.3c-0.1-2.1-3.6-0.2-2.8-4.7c0.4-1.9-3.1,1.7-2.8-0.7
			c0.2-1.6-2.3-16.4-3.6-9.4c-0.1,0.7-0.8,4.2-0.8,4.3c-1.6,1.4-1.4,4.3-3.1,7.7c-3,5.7-5.5,4.3-2.3,7.7c1.8,2-2.9,3-3.8,8.3
			c0,0.3-1.9,5.7-2.9,5c-0.7-0.5-2.1,8,0.1,9c7.4,3.1,2.2-0.2,0.3,3.3c-1.6,3,8.6,4.1,2.3,4.6c-2.3,0.2-4.6-0.5-6.8-1
			c-12.6-3.8-4.7-0.1-3.1,4.3c-0.9,1-8.1-4.6-4.3,2.9c5,6.6,7.6-0.7,7,16.5c-0.1,2.6-1.7,1-5.3,0.6l-2.4-0.3
			c-10.2-0.9,1.1,10.7,4,11.9c3.1,1.3,9.9,2.8,4.9,7.2c-5.5,4.8-8.9-3.2-15.3,1.4c3.1,6.1,7.9,7.7,0.2,10.3c-6.9,1.9-1.4,1.6-3.3,4
			c-2.5,3.2-6.9,5.1-5.7,9.6c0.3,1.1-8.2,6.9,1.3,6.4c2-0.1,6.8,0.6,4.9,4c-1.3,2.4,5.1,0.9,0.5,6.8c-2.4,3-14.8,6.7-12.6,9.6
			c3.6,5-2.9,3.8,9.9,8.4c11,3.9-11.5-1.8-7.5,3.7c0.7,1,4.2,2.6,6.2,1.8c3.3-1.3,8.7,2,3.8,1.5c-2-0.2-1,2.3-2.8,4.8
			c-2.3,3.2,3.7,6.8-3.6,4.6c-1.5-0.4-12.2,0-9.3,2.6c8.4,7.7,8-3.6,8.7,4c0.4,4.9,2.7-2.2,3.2-1.2c3.6,7.2,5.4-6.5,6.5-0.8
			c0,0.2,2.8,0.9-0.5,1.6c-1.5,0.3,1-0.5,0.1,0.6c-0.6,0.8,5.4,7.7,6.2,4.3c0.4-1.7,1.6,0.3,4.9,0.5c2.3,0.1,6,3.3,7.9,1.2
			C988.1,688.6,992.1,688.6,993.6,690z M987.2,592.9c-0.8-1.6,1.9-0.6,0.7,0.4C987.6,593.2,987.5,593.2,987.2,592.9z M1038,631.4
			c6.4,3.7-3.1,8.2-1.7,0.8C1036.5,631.1,1037,631,1038,631.4z M1028.3,634.9c1.3-1.1,1.7,2.6,0.1,0.2L1028.3,634.9z M1041.1,647.5
			 M984.4,655.8c-3.2-0.4,5.2-4.1,3.3-1.3C987.1,655.4,985.5,655.7,984.4,655.8z M964,655.6c-4.9-0.7,0.3-3.7,1-0.7
			C965.1,655.5,964.4,655.6,964,655.6z M959.4,655.3c1.9-1.8-0.2,2.6-0.2,0.6C959.2,655.6,959.3,655.4,959.4,655.3z M973.8,667.9
			c-5.3,0.9-0.9-5.2,0.7-1C974.7,667.5,974.2,667.7,973.8,667.9z M1042.8,668.3c-3.8-5.3,11.2,4.1,2.2,1.3
			C1043.9,669.3,1043.6,669.1,1042.8,668.3z M1049.4,675c-3.1-1.2-0.7-0.7,0.9-2.5c2.4-2.6,2.7,2.1,4.2,2.5
			C1056.7,675.5,1053.4,676.2,1049.4,675z"/>
		<path class="st4" d="M944.8,640.1c-0.3,1.6,3.5-0.9,1.1-0.6C945.4,639.6,945.1,639.8,944.8,640.1 M913,649c4.6,4.2,4.7-3.2-0.1-2
			C911.7,647.3,912.5,648.4,913,649z M920.5,639.1c-4.6-1.1-4.9,5.2-3.4,3.9c1.2-1.1,4.8-0.2,4-3.3
			C920.9,639.2,920.9,639.2,920.5,639.1z M938.4,592.9c-0.7,0.7,1.6,0.6,0.2,0L938.4,592.9z M937.6,594.7c0.1-1.1-1.9-1.2-0.5,0
			C937.3,594.9,937.4,594.9,937.6,594.7z M947.8,624.5c-1.7-1.4-12.7-2-4.8,0.1c1.6,0.4,3.3,0.9,4.8,0.1L947.8,624.5z M951.5,626.5
			c1.7,0.6,1.1-1.9-0.9-0.9C950.5,626.1,951.1,626.3,951.5,626.5z M942.6,610.3 M939.6,620.8c-0.6-1.8-3.7-0.9-1,0
			C938.8,620.9,939.4,621.1,939.6,620.8z M948.5,612.9 M926,601.4 M928.5,683.5c0.5,0.7,2.1-0.6,2.5,0.3c0.4,0.9,1.2-1.5,1.7,4.7
			c0.4,5.4,0.9,11.3-0.6,16.5c-0.5,1.6,2.1,1,3.7,0.9c3.2-0.2,2.1,0,2.1-4.2c0-3.5-1.4-18.5,1.4-19.1c2.5-0.5,1-1.7,4.1-3
			c4.9-2.2,1.2-1.1,4.3,0.5c1.5,0.8,0.7-1.7,3.5,1.8c1,1.4,6.8,5.6,4.3,1.1c-2-4.8,4-2.6,4.5-2.2c2.9,2.6,1.6-2.3,3.7,2.7
			c0.3,0.7,0.4,1,1.1,1c1.3-0.6,5.7-1.1,7.4-1.3c3-0.8-0.9-1.4-1.8-3.8c-0.2-0.5-3.2,0.1-1.2-1.5c1.8-1.4,5.2,3.3,6.2,0.7
			c0.3-0.7-2.6-2,3.7-1.9c3.3,0.1-1.5-0.4,0.1-3.4c0.8-1.5-8.4-6.2-7.6-7.7c1.4-2.5,4.9-1.9-0.4-2.3c-9.1-0.7-8.8-9.1,0.9-10.5
			c2.4-0.3-2.3-1.4-0.3-4.8c1.1-1.7-7.2,0.1-6.2-2.8c0.8-2.4-1.1-2.6-1.4-5.6c-0.3-3-4.8-3.6,1.5-6.1c4.2-2.2-1.1-2.6,3.5-4.2
			c3.6-1.2-3.7-2.3-5.2-2.8c-2.3-0.9-9.5-4.2-7.1-7.6c4-5.5,5.6-3.8,0.4-5.8c-2.8-1.1,3.6-0.9,0.9-4.4c-1.4-1.7-4.3,0.4-2.5-3.3
			c2.4-5.1-10.1,1-11-3.5c-0.9-3.9,9.4-1.7,12-6.8c1.5-2.9-12.1,3.2-9-1.9c1.1-1.8,4-4.7,3.9-6.4c-0.1-1.7,5.5-3.9-1.8-3.9
			c-6.3,0,0.1-3.2-6.6-2.1c-3.6,0.6,3.8-2.3,3.8-3.2c-1-0.6-4.5-0.4-0.4-2.3c3.8-1.8-9.1-0.9-3.7-5.3c3.8-3.1-5.3,0.1-1.9-3.2
			c2.3-2.3-5.3-0.4-2.6-2.4c1.1-0.8,1.2-1.1,1.4-2.4c-0.1-1.5-2.6-0.1-2-3.4c0.3-1.4-2.2,1.2-2.1-0.5c0.1-1.2-1.6-11.9-2.6-6.8
			c-0.1,0.5-0.5,3.1-0.6,3.1c-1.2,1-1,3.1-2.3,5.6c-2.2,4.1-4,3.1-1.6,5.6c1.3,1.4-2.1,2.2-2.7,6c0,0.2-1.4,4.1-2.1,3.6
			c-0.5-0.3-1.5,5.8,0,6.5c5.4,2.3,1.6-0.1,0.2,2.4c-1.2,2.2,6.2,3,1.6,3.3c-1.7,0.1-3.3-0.3-4.9-0.7c-9.1-2.7-3.4-0.1-2.3,3.1
			c-0.6,0.7-5.9-3.3-3.1,2.1c3.6,4.8,5.5-0.5,5,11.9c-0.1,1.9-1.2,0.7-3.8,0.4l-1.8-0.2c-7.4-0.6,0.8,7.8,2.9,8.6
			c2.2,0.9,7.2,2,3.5,5.2c-3.9,3.5-6.5-2.3-11,1c2.3,4.4,5.7,5.6,0.1,7.5c-5,1.3-1,1.1-2.4,2.9c-1.8,2.3-5,3.7-4.1,6.9
			c0.2,0.8-6,5,1,4.7c1.4-0.1,4.9,0.5,3.6,2.9c-0.9,1.7,3.7,0.7,0.4,4.9c-1.7,2.2-10.7,4.8-9.1,7c2.6,3.6-2.1,2.8,7.2,6.1
			c8,2.8-8.4-1.3-5.5,2.7c0.5,0.7,3,1.9,4.5,1.3c2.4-0.9,6.3,1.4,2.8,1.1c-1.4-0.1-0.7,1.7-2,3.5c-1.6,2.3,2.7,4.9-2.6,3.4
			c-1.1-0.3-8.8,0-6.7,1.9c6.1,5.5,5.8-2.6,6.3,2.9c0.3,3.5,2-1.6,2.3-0.9c2.6,5.2,3.9-4.7,4.7-0.6c0,0.1,2,0.7-0.4,1.1
			c-1.1,0.2,0.7-0.4,0.1,0.5c-0.4,0.6,3.9,5.5,4.5,3.1c0.3-1.3,1.2,0.2,3.5,0.3c1.7,0.1,4.3,2.4,5.7,0.9
			C924.5,682.5,927.3,682.5,928.5,683.5z M923.8,613.2c-0.6-1.2,1.4-0.5,0.5,0.3C924.1,613.4,924,613.4,923.8,613.2z M960.6,641.1
			c4.7,2.7-2.3,5.9-1.2,0.6C959.5,640.9,959.9,640.8,960.6,641.1z M953.6,643.6c0.9-0.8,1.2,1.9,0.1,0.2L953.6,643.6z M962.9,652.7
			 M921.8,658.7c-2.3-0.3,3.8-3,2.4-1C923.7,658.5,922.5,658.7,921.8,658.7z M907,658.6c-3.5-0.5,0.2-2.7,0.7-0.5
			C907.8,658.6,907.3,658.6,907,658.6z M903.7,658.4c1.4-1.3-0.1,1.9-0.2,0.4C903.5,658.6,903.6,658.5,903.7,658.4z M914.1,667.5
			c-3.9,0.6-0.6-3.8,0.5-0.7C914.7,667.2,914.4,667.4,914.1,667.5z M964.1,667.8c-2.8-3.9,8.1,2.9,1.6,0.9
			C964.9,668.5,964.6,668.4,964.1,667.8z M968.8,672.7c-2.3-0.9-0.5-0.5,0.7-1.8c1.7-1.9,1.9,1.5,3.1,1.8
			C974.1,673,971.8,673.5,968.8,672.7z"/>
		<path class="st4" d="M875,640.2c-0.4,1.9,4.3-1.1,1.4-0.7C875.8,639.5,875.4,639.8,875,640.2 M836,651c5.7,5.2,5.7-4-0.1-2.4
			C834.4,649,835.4,650.4,836,651z M845.2,638.9c-5.6-1.4-6,6.4-4.2,4.8c1.5-1.4,5.9-0.2,4.9-4.1C845.8,639,845.7,639.1,845.2,638.9
			z M867.2,582.3c-0.9,0.9,1.9,0.7,0.2,0L867.2,582.3z M866.2,584.4c0.1-1.3-2.3-1.5-0.6,0.1C865.9,584.7,866,584.7,866.2,584.4z
			 M878.6,621c-2-1.8-15.6-2.5-5.9,0.2c2,0.6,4,1.1,5.9,0.2L878.6,621z M883.3,623.5c2.1,0.7,1.4-2.4-1.1-1.1
			C882.1,623,882.8,623.3,883.3,623.5z M872.3,603.6 M868.6,616.5c-0.7-2.1-4.6-1.1-1.2,0C867.7,616.6,868.3,616.8,868.6,616.5z
			 M879.6,606.7 M851.9,592.6 M855,693.5c0.6,0.9,2.6-0.8,3.1,0.4c0.5,1.1,1.4-1.8,2,5.7c0.5,6.6,1.1,13.9-0.8,20.3
			c-0.6,2,2.6,1.3,4.5,1.1c3.9-0.2,2.6,0,2.5-5.1c0-4.2-1.7-22.7,1.7-23.4c3.1-0.6,1.2-2.1,5-3.7c6-2.8,1.5-1.4,5.2,0.6
			c1.9,1,0.9-2,4.3,2.2c1.3,1.7,8.3,6.8,5.3,1.3c-2.5-5.8,4.9-3.1,5.5-2.6c3.6,3.2,1.9-2.9,4.6,3.4c0.4,0.9,0.5,1.3,1.4,1.2
			c1.6-0.7,7-1.3,9.1-1.6c3.7-1-1-1.7-2.2-4.6c-0.3-0.6-3.9,0.1-1.4-1.8c2.2-1.7,6.3,4.1,7.6,0.8c0.3-0.9-3.1-2.5,4.5-2.3
			c4,0.1-1.8-0.5,0.2-4.1c1-1.9-10.4-7.6-9.3-9.4c1.8-3,6-2.4-0.5-2.9c-11.2-0.9-10.7-11.1,1.1-12.8c2.9-0.4-2.8-1.8-0.3-5.9
			c1.3-2.1-8.8,0.2-7.6-3.5c1-2.9-1.3-3.2-1.7-6.8c-0.3-3.7-5.9-4.4,1.8-7.5c5.1-2.7-1.3-3.2,4.3-5.1c4.4-1.5-4.6-2.8-6.4-3.4
			c-2.8-1.1-11.7-5.2-8.7-9.3c4.9-6.7,6.8-4.7,0.5-7.1c-3.4-1.3,4.5-1.1,1.1-5.4c-1.7-2.1-5.2,0.4-3.1-4c3-6.3-12.3,1.2-13.5-4.3
			c-1.1-4.8,11.5-2.1,14.7-8.3c1.8-3.6-14.8,3.9-11.1-2.4c1.3-2.2,4.9-5.8,4.8-7.8c-0.1-2.1,6.8-4.8-2.3-4.8c-7.8,0,0.1-4-8.1-2.5
			c-4.4,0.8,4.7-2.8,4.7-4c-1.2-0.7-5.5-0.5-0.5-2.8c4.7-2.2-11.2-1.1-4.6-6.5c4.7-3.9-6.5,0.1-2.4-3.9c2.8-2.8-6.5-0.5-3.1-2.9
			c1.4-1,1.5-1.4,1.7-3c-0.1-1.9-3.2-0.2-2.5-4.1c0.3-1.7-2.7,1.5-2.5-0.6c0.2-1.4-2-14.6-3.2-8.3c-0.1,0.6-0.7,3.7-0.7,3.8
			c-1.5,1.2-1.2,3.9-2.8,6.8c-2.7,5.1-4.9,3.8-2,6.8c1.6,1.7-2.5,2.7-3.4,7.4c0,0.2-1.7,5-2.6,4.5c-0.7-0.4-1.9,7.1,0.1,8
			c6.6,2.8,1.9-0.1,0.3,3c-1.5,2.7,7.6,3.7,2,4.1c-2.1,0.2-4.1-0.4-6-0.9c-11.2-3.4-4.2-0.1-2.8,3.8c-0.8,0.9-7.2-4.1-3.8,2.5
			c4.4,5.8,6.7-0.6,6.2,14.7c-0.1,2.3-1.5,0.9-4.7,0.5l-2.2-0.3c-9.1-0.8,1,9.5,3.5,10.6c2.7,1.1,8.8,2.5,4.3,6.4
			c-4.8,4.3-7.9-2.8-13.6,1.2c2.8,5.4,7,6.9,0.2,9.1c-6.1,1.6-1.2,1.4-2.9,3.6c-2.2,2.9-6.2,4.5-5,8.5c0.3,1-7.3,6.2,1.2,5.7
			c1.8-0.1,6,0.6,4.4,3.6c-1.1,2.1,4.6,0.8,0.5,6c-2.1,2.7-13.1,5.9-11.2,8.5c3.2,4.4-2.6,3.4,8.8,7.4c9.8,3.5-10.3-1.6-6.7,3.3
			c0.6,0.9,3.7,2.3,5.5,1.6c2.9-1.2,7.7,1.7,3.4,1.3c-1.8-0.2-0.9,2-2.5,4.3c-2,2.8,3.3,6-3.2,4.1c-1.3-0.4-10.8,0-8.2,2.3
			c7.4,6.8,7.1-3.2,7.7,3.5c0.4,4.3,2.4-1.9,2.9-1.1c3.2,6.4,4.8-5.8,5.8-0.7c0,0.1,2.4,0.8-0.5,1.4c-1.4,0.3,0.9-0.5,0.1,0.6
			c-0.6,0.7,4.8,6.8,5.5,3.8c0.4-1.5,1.5,0.3,4.3,0.4c2,0.1,5.3,2.9,7,1.1C850.1,692.2,853.6,692.2,855,693.5z M849.3,607.1
			c-0.7-1.4,1.7-0.6,0.7,0.4C849.6,607.4,849.6,607.5,849.3,607.1z M894.4,641.4c5.7,3.3-2.8,7.3-1.5,0.7
			C893.1,641.1,893.5,641.1,894.4,641.4z M885.8,644.5c1.1-0.9,1.5,2.3,0.1,0.2L885.8,644.5z M897.2,655.7 M846.8,663
			c-2.9-0.4,4.6-3.7,2.9-1.2C849.1,662.7,847.7,663,846.8,663z M828.7,662.9c-4.3-0.6,0.3-3.3,0.9-0.6
			C829.7,662.8,829,662.9,828.7,662.9z M824.5,662.6c1.7-1.6-0.2,2.3-0.2,0.5C824.3,662.9,824.4,662.7,824.5,662.6z M837.3,673.8
			c-4.7,0.8-0.8-4.7,0.6-0.9C838.1,673.5,837.7,673.6,837.3,673.8z M898.7,674.2c-3.4-4.7,9.9,3.6,2,1.1
			C899.7,675,899.4,674.9,898.7,674.2z M904.5,680.1c-2.8-1.1-0.6-0.6,0.8-2.2c2.1-2.4,2.4,1.9,3.8,2.2
			C911,680.6,908.1,681.2,904.5,680.1z"/>
		<path class="st4" d="M810.5,643.3c-0.3,1.4,3.1-0.8,1-0.5C811.1,642.8,810.7,643,810.5,643.3 M782.8,651c4,3.7,4.1-2.8-0.1-1.7
			C781.7,649.5,782.4,650.5,782.8,651z M789.4,642.4c-4-1-4.2,4.5-3,3.4c1.1-1,4.2-0.2,3.5-2.9C789.8,642.5,789.7,642.5,789.4,642.4
			z M805,602.3c-0.6,0.6,1.4,0.5,0.2,0L805,602.3z M804.3,603.8c0.1-0.9-1.6-1-0.4,0C804,604,804.1,604,804.3,603.8z M813.1,629.7
			c-1.4-1.2-11.1-1.8-4.2,0.1c1.4,0.4,2.8,0.8,4.2,0.1L813.1,629.7z M816.3,631.5c1.5,0.5,1-1.7-0.8-0.8
			C815.5,631.1,816,631.3,816.3,631.5z M808.6,617.3 M805.9,626.5c-0.5-1.5-3.2-0.8-0.8,0C805.3,626.6,805.8,626.7,805.9,626.5z
			 M813.8,619.6 M794.2,609.6 M796.3,681c0.4,0.7,1.8-0.5,2.2,0.3c0.3,0.8,1-1.3,1.4,4c0.4,4.7,0.8,9.8-0.6,14.3
			c-0.4,1.4,1.8,0.9,3.2,0.8c2.8-0.2,1.8,0,1.8-3.6c0-3-1.2-16.1,1.2-16.6c2.2-0.5,0.9-1.5,3.6-2.6c4.3-1.9,1-1,3.7,0.4
			c1.3,0.7,0.6-1.4,3.1,1.6c0.9,1.2,5.9,4.8,3.8,0.9c-1.8-4.1,3.5-2.2,3.9-1.9c2.5,2.2,1.4-2,3.2,2.4c0.3,0.6,0.3,0.9,1,0.9
			c1.1-0.5,5-0.9,6.4-1.1c2.6-0.7-0.7-1.2-1.6-3.3c-0.2-0.4-2.8,0.1-1-1.3c1.6-1.2,4.5,2.9,5.4,0.6c0.2-0.6-2.2-1.8,3.2-1.6
			c2.9,0.1-1.3-0.4,0.1-2.9c0.7-1.3-7.3-5.4-6.6-6.7c1.2-2.2,4.3-1.7-0.3-2c-7.9-0.6-7.6-7.9,0.8-9.1c2-0.3-2-1.2-0.2-4.2
			c0.9-1.5-6.2,0.1-5.4-2.4c0.7-2-1-2.3-1.2-4.8c-0.2-2.6-4.2-3.1,1.3-5.3c3.6-1.9-0.9-2.3,3-3.6c3.1-1-3.3-2-4.5-2.4
			c-2-0.8-8.3-3.7-6.2-6.6c3.5-4.8,4.8-3.3,0.3-5c-2.4-0.9,3.2-0.8,0.8-3.8c-1.2-1.5-3.7,0.3-2.2-2.9c2.1-4.5-8.7,0.9-9.6-3
			c-0.7-3.4,8.2-1.5,10.4-5.9c1.3-2.5-10.5,2.8-7.8-1.7c0.9-1.6,3.5-4.1,3.4-5.6c-0.1-1.5,4.8-3.4-1.6-3.4c-5.5,0,0-2.8-5.8-1.8
			c-3.1,0.5,3.3-2,3.3-2.8c-0.9-0.5-3.9-0.4-0.4-2c3.3-1.6-7.9-0.8-3.3-4.6c3.3-2.7-4.6,0.1-1.7-2.8c2-2-4.6-0.4-2.2-2
			c1-0.7,1-1,1.2-2.1c-0.1-1.3-2.3-0.1-1.7-2.9c0.2-1.2-1.9,1-1.8-0.4c0.1-1-1.4-10.3-2.2-5.9c-0.1,0.5-0.5,2.7-0.5,2.7
			c-1,0.9-0.9,2.7-2,4.8c-1.9,3.6-3.4,2.7-1.4,4.8c1.2,1.2-1.8,1.9-2.4,5.2c0,0.2-1.2,3.6-1.8,3.2c-0.5-0.3-1.3,5,0,5.7
			c4.7,2,1.4-0.1,0.2,2.1c-1,1.9,5.4,2.6,1.4,2.9c-1.5,0.1-2.9-0.3-4.3-0.6c-7.9-2.4-2.9-0.1-2,2.7c-0.5,0.6-5.1-2.9-2.7,1.8
			c3.1,4.1,4.8-0.4,4.4,10.4c-0.1,1.6-1,0.6-3.3,0.4l-1.5-0.2c-6.4-0.5,0.7,6.8,2.5,7.5c1.9,0.8,6.2,1.8,3.1,4.6
			c-3.4,3-5.6-2-9.6,0.9c2,3.8,4.9,4.9,0.1,6.5c-4.3,1.2-0.9,1-2.1,2.5c-1.6,2-4.4,3.2-3.6,6c0.2,0.7-5.2,4.4,0.8,4.1
			c1.3-0.1,4.3,0.4,3.1,2.5c-0.8,1.5,3.2,0.6,0.3,4.3c-1.5,1.9-9.3,4.2-7.9,6c2.3,3.1-1.8,2.4,6.2,5.3c7,2.5-7.3-1.1-4.8,2.4
			c0.4,0.6,2.6,1.6,3.9,1.1c2.1-0.8,5.5,1.2,2.4,0.9c-1.3-0.1-0.6,1.4-1.8,3c-1.4,2,2.4,4.2-2.3,2.9c-1-0.3-7.7,0-5.8,1.7
			c5.3,4.8,5-2.2,5.5,2.5c0.3,3.1,1.7-1.4,2-0.8c2.3,4.5,3.4-4.1,4.1-0.5c0,0.1,1.7,0.6-0.3,1c-1,0.2,0.6-0.3,0.1,0.4
			c-0.4,0.5,3.4,4.8,3.9,2.7c0.3-1.1,1,0.2,3.1,0.3c1.4,0.1,3.8,2.1,5,0.8C792.8,680.1,795.3,680.1,796.3,681z M792.3,619.9
			c-0.5-1,1.2-0.4,0.5,0.3C792.5,620.1,792.5,620.1,792.3,619.9z M824.2,644.1c4,2.3-2,5.1-1.1,0.5
			C823.3,643.9,823.6,643.9,824.2,644.1z M818.1,646.3c0.8-0.7,1.1,1.6,0.1,0.2L818.1,646.3z M826.2,654.2 M790.5,659.5
			c-2-0.3,3.3-2.6,2.1-0.8C792.2,659.2,791.2,659.4,790.5,659.5z M777.7,659.3c-3.1-0.5,0.2-2.3,0.6-0.4
			C778.4,659.3,777.9,659.3,777.7,659.3z M774.8,659.1c1.2-1.1-0.1,1.6-0.1,0.4C774.6,659.4,774.7,659.3,774.8,659.1z M783.8,667.1
			c-3.4,0.6-0.5-3.3,0.4-0.6C784.4,666.8,784.1,666.9,783.8,667.1z M827.2,667.4c-2.4-3.3,7,2.6,1.4,0.8
			C828,668,827.7,667.8,827.2,667.4z M831.4,671.6c-2-0.7-0.5-0.4,0.6-1.6c1.5-1.7,1.7,1.3,2.7,1.5
			C836,671.9,833.9,672.3,831.4,671.6z"/>
		<path class="st4" d="M763.7,647.1c-0.4,1.8,3.9-1,1.3-0.7C764.4,646.5,764,646.8,763.7,647.1 M728,657c5.2,4.7,5.2-3.6-0.1-2.2
			C726.6,655.2,727.5,656.4,728,657z M736.4,645.9c-5.1-1.3-5.5,5.8-3.9,4.4c1.4-1.3,5.4-0.2,4.5-3.7
			C736.9,646.1,736.9,646.1,736.4,645.9z M756.6,594.2c-0.8,0.8,1.8,0.7,0.2,0L756.6,594.2z M755.7,596.1c0.1-1.2-2.1-1.3-0.5,0.1
			C755.3,596.4,755.5,596.4,755.7,596.1z M767,629.6c-1.9-1.6-14.3-2.3-5.4,0.2c1.8,0.5,3.7,1,5.4,0.2L767,629.6z M771.3,631.9
			c1.9,0.7,1.2-2.2-1.1-1C770.1,631.4,770.8,631.6,771.3,631.9z M761.2,613.6 M757.8,625.4c-0.7-2-4.2-1-1.1,0
			C757,625.6,757.6,625.7,757.8,625.4z M767.9,616.5 M742.6,603.6 M745.4,695.8c0.6,0.8,2.4-0.7,2.8,0.4c0.4,1,1.3-1.7,1.9,5.2
			c0.5,6,1,12.7-0.7,18.5c-0.5,1.8,2.4,1.1,4.1,1c3.6-0.2,2.4,0,2.3-4.7c0-3.9-1.5-20.8,1.6-21.4c2.8-0.6,1.1-1.9,4.6-3.4
			c5.5-2.5,1.3-1.3,4.8,0.5c1.7,0.9,0.8-1.9,4,2c1.2,1.6,7.6,6.2,4.8,1.2c-2.3-5.3,4.5-2.9,5-2.4c3.3,2.9,1.8-2.6,4.2,3.1
			c0.3,0.8,0.4,1.2,1.3,1.1c1.5-0.7,6.4-1.2,8.3-1.5c3.4-0.9-1-1.6-2-4.2c-0.2-0.6-3.6,0.1-1.3-1.7c2-1.6,5.8,3.7,6.9,0.8
			c0.3-0.8-2.9-2.3,4.1-2.1c3.7,0.1-1.6-0.5,0.1-3.8c0.9-1.7-9.5-6.9-8.5-8.6c1.6-2.8,5.5-2.2-0.4-2.6c-10.2-0.8-9.8-10.2,1-11.7
			c2.6-0.4-2.6-1.6-0.3-5.4c1.2-1.9-8,0.2-6.9-3.2c0.9-2.6-1.2-3-1.5-6.3c-0.3-3.4-5.4-4.1,1.7-6.9c4.7-2.5-1.2-3,3.9-4.7
			c4-1.3-4.2-2.5-5.8-3.1c-2.6-1-10.7-4.7-8-8.5c4.5-6.2,6.2-4.3,0.4-6.5c-3.2-1.2,4.1-1.1,1-4.9c-1.5-2-4.8,0.4-2.8-3.7
			c2.7-5.7-11.3,1.1-12.4-3.9c-1-4.4,10.5-2,13.4-7.6c1.7-3.3-13.6,3.6-10.1-2.2c1.2-2,4.5-5.3,4.4-7.2c-0.1-1.9,6.2-4.4-2.1-4.4
			c-7.1,0,0.1-3.6-7.5-2.3c-4,0.7,4.3-2.6,4.3-3.6c-1.1-0.7-5-0.5-0.5-2.6c4.3-2-10.2-1-4.2-5.9c4.3-3.5-5.9,0.1-2.2-3.6
			c2.6-2.5-6-0.5-2.9-2.6c1.3-0.9,1.3-1.3,1.5-2.7c-0.1-1.7-2.9-0.2-2.3-3.8c0.3-1.6-2.5,1.3-2.3-0.6c0.1-1.3-1.9-13.3-2.9-7.6
			c-0.1,0.6-0.6,3.4-0.7,3.5c-1.3,1.1-1.1,3.5-2.5,6.2c-2.4,4.6-4.4,3.5-1.8,6.3c1.5,1.6-2.3,2.5-3.1,6.7c0,0.2-1.5,4.6-2.4,4.1
			c-0.6-0.4-1.7,6.5,0.1,7.3c6,2.6,1.8-0.1,0.2,2.7c-1.3,2.5,7,3.4,1.8,3.7c-1.9,0.1-3.7-0.4-5.5-0.8c-10.2-3.1-3.8-0.1-2.5,3.5
			c-0.7,0.8-6.6-3.7-3.5,2.3c4.1,5.3,6.1-0.6,5.7,13.4c-0.1,2.1-1.3,0.8-4.3,0.5l-2-0.2c-8.3-0.7,0.9,8.7,3.2,9.7c2.5,1,8,2.3,4,5.9
			c-4.4,3.9-7.3-2.6-12.4,1.1c2.6,4.9,6.4,6.3,0.2,8.4c-5.6,1.5-1.1,1.3-2.6,3.3c-2,2.6-5.6,4.1-4.6,7.8c0.2,0.9-6.7,5.6,1.1,5.2
			c1.6-0.1,5.5,0.5,4,3.3c-1,1.9,4.2,0.8,0.4,5.5c-2,2.5-12,5.4-10.2,7.8c3,4-2.3,3.1,8,6.8c9,3.2-9.4-1.5-6.1,3
			c0.6,0.8,3.4,2.1,5,1.5c2.7-1.1,7.1,1.6,3.1,1.2c-1.6-0.2-0.8,1.9-2.3,3.9c-1.8,2.6,3,5.5-2.9,3.8c-1.2-0.4-9.9,0-7.5,2.1
			c6.8,6.2,6.5-2.9,7,3.2c0.4,4,2.2-1.8,2.6-1c3,5.8,4.4-5.3,5.3-0.6c0,0.1,2.2,0.7-0.4,1.3c-1.3,0.3,0.8-0.4,0.1,0.5
			c-0.5,0.7,4.4,6.2,5,3.5c0.3-1.4,1.3,0.3,4,0.4c1.9,0.1,4.8,2.7,6.4,1C740.9,694.7,744.1,694.7,745.4,695.8z M740.2,616.9
			c-0.6-1.3,1.5-0.5,0.6,0.3C740.4,617.2,740.4,617.2,740.2,616.9z M781.4,648.2c5.2,3-2.6,6.6-1.4,0.7
			C780.2,648,780.6,647.9,781.4,648.2z M773.6,651c1-0.9,1.4,2.1,0.1,0.2L773.6,651z M784,661.3 M737.9,668
			c-2.6-0.3,4.2-3.4,2.7-1.1C740,667.7,738.7,667.9,737.9,668z M721.3,667.9c-4-0.6,0.3-3,0.8-0.5
			C722.2,667.8,721.6,667.8,721.3,667.9z M717.6,667.6c1.5-1.4-0.2,2.1-0.2,0.5C717.4,667.9,717.5,667.8,717.6,667.6z M729.3,677.9
			c-4.3,0.7-0.7-4.3,0.5-0.8C730,677.6,729.6,677.7,729.3,677.9z M785.3,678.2c-3.1-4.3,9.1,3.3,1.8,1
			C786.3,679,786,678.8,785.3,678.2z M790.7,683.6c-2.5-1-0.6-0.5,0.7-2c2-2.2,2.2,1.7,3.4,2C796.6,684.1,794,684.6,790.7,683.6z"/>
		<path class="st4" d="M669.1,640.1c-0.3,1.6,3.5-0.9,1.1-0.6C669.8,639.6,669.4,639.8,669.1,640.1 M637.3,649
			c4.6,4.2,4.7-3.2-0.1-2C636,647.3,636.8,648.4,637.3,649z M644.8,639.1c-4.6-1.1-4.9,5.2-3.4,3.9c1.2-1.1,4.8-0.2,4-3.3
			C645.3,639.2,645.2,639.2,644.8,639.1z M662.8,592.9c-0.7,0.7,1.6,0.6,0.2,0L662.8,592.9z M661.9,594.7c0.1-1.1-1.9-1.2-0.5,0
			C661.7,594.9,661.8,594.9,661.9,594.7z M672.1,624.5c-1.7-1.4-12.7-2-4.8,0.1c1.6,0.4,3.3,0.9,4.8,0.1L672.1,624.5z M675.8,626.5
			c1.7,0.6,1.1-1.9-0.9-0.9C674.8,626.1,675.4,626.3,675.8,626.5z M666.9,610.3 M663.9,620.8c-0.6-1.8-3.7-0.9-1,0
			C663.2,620.9,663.7,621.1,663.9,620.8z M672.9,612.9 M650.3,601.4 M652.8,683.5c0.5,0.7,2.1-0.6,2.5,0.3c0.4,0.9,1.2-1.5,1.7,4.7
			c0.4,5.4,0.9,11.3-0.6,16.5c-0.5,1.6,2.1,1,3.7,0.9c3.2-0.2,2.1,0,2.1-4.2c0-3.5-1.4-18.5,1.4-19.1c2.5-0.5,1-1.7,4.1-3
			c4.9-2.2,1.2-1.1,4.3,0.5c1.5,0.8,0.7-1.7,3.5,1.8c1,1.4,6.8,5.6,4.3,1.1c-2-4.8,4-2.6,4.5-2.2c2.9,2.6,1.6-2.3,3.7,2.7
			c0.3,0.7,0.4,1,1.1,1c1.3-0.6,5.7-1.1,7.4-1.3c3-0.8-0.8-1.4-1.8-3.8c-0.2-0.5-3.2,0.1-1.2-1.5c1.8-1.4,5.2,3.3,6.2,0.7
			c0.3-0.7-2.6-2,3.7-1.9c3.3,0.1-1.5-0.4,0.1-3.4c0.8-1.5-8.4-6.2-7.6-7.7c1.4-2.5,4.9-1.9-0.4-2.3c-9.1-0.7-8.8-9.1,0.9-10.5
			c2.4-0.3-2.3-1.4-0.2-4.8c1.1-1.7-7.2,0.1-6.2-2.8c0.8-2.4-1.1-2.6-1.4-5.6c-0.3-3-4.8-3.6,1.5-6.1c4.2-2.2-1.1-2.6,3.5-4.2
			c3.6-1.2-3.7-2.3-5.2-2.8c-2.3-0.9-9.5-4.2-7.1-7.6c4-5.5,5.6-3.8,0.4-5.8c-2.8-1.1,3.6-0.9,0.9-4.4c-1.4-1.7-4.3,0.4-2.5-3.3
			c2.4-5.1-10.1,1-11-3.5c-0.9-3.9,9.4-1.7,12-6.8c1.5-2.9-12.1,3.2-9-1.9c1.1-1.8,4-4.7,3.9-6.4c-0.1-1.7,5.5-3.9-1.8-3.9
			c-6.3,0,0.1-3.2-6.6-2.1c-3.6,0.6,3.8-2.3,3.8-3.2c-1-0.6-4.5-0.4-0.4-2.3c3.8-1.8-9.1-0.9-3.7-5.3c3.8-3.1-5.3,0.1-1.9-3.2
			c2.3-2.3-5.3-0.4-2.6-2.4c1.1-0.8,1.2-1.1,1.4-2.4c-0.1-1.5-2.6-0.1-2-3.4c0.3-1.4-2.2,1.2-2.1-0.5c0.1-1.2-1.6-11.9-2.6-6.8
			c-0.1,0.5-0.6,3.1-0.6,3.1c-1.2,1-1,3.1-2.3,5.6c-2.2,4.1-4,3.1-1.6,5.6c1.3,1.4-2.1,2.2-2.7,6c0,0.2-1.4,4.1-2.1,3.6
			c-0.5-0.3-1.5,5.8,0,6.5c5.4,2.3,1.6-0.1,0.2,2.4c-1.2,2.2,6.2,3,1.6,3.3c-1.7,0.1-3.3-0.3-4.9-0.7c-9.1-2.7-3.4-0.1-2.3,3.1
			c-0.6,0.7-5.9-3.3-3.1,2.1c3.6,4.8,5.5-0.5,5,11.9c-0.1,1.9-1.2,0.7-3.8,0.4l-1.8-0.2c-7.4-0.6,0.8,7.8,2.9,8.6
			c2.2,0.9,7.2,2,3.5,5.2c-3.9,3.5-6.5-2.3-11,1c2.3,4.4,5.7,5.6,0.1,7.5c-5,1.3-1,1.1-2.4,2.9c-1.8,2.3-5,3.7-4.1,6.9
			c0.2,0.8-6,5,1,4.7c1.4-0.1,4.9,0.5,3.6,2.9c-0.9,1.7,3.7,0.7,0.4,4.9c-1.7,2.2-10.7,4.8-9.1,7c2.6,3.6-2.1,2.8,7.2,6.1
			c8,2.8-8.4-1.3-5.5,2.7c0.5,0.7,3,1.9,4.5,1.3c2.4-0.9,6.3,1.4,2.8,1.1c-1.4-0.1-0.7,1.7-2,3.5c-1.6,2.3,2.7,4.9-2.6,3.4
			c-1.1-0.3-8.8,0-6.7,1.9c6.1,5.5,5.8-2.6,6.3,2.9c0.3,3.5,2-1.6,2.3-0.9c2.6,5.2,3.9-4.7,4.7-0.6c0,0.1,2,0.7-0.4,1.1
			c-1.1,0.2,0.7-0.4,0.1,0.5c-0.4,0.6,3.9,5.5,4.5,3.1c0.3-1.3,1.2,0.2,3.5,0.3c1.7,0.1,4.3,2.4,5.7,0.9
			C648.8,682.5,651.7,682.5,652.8,683.5z M648.1,613.2c-0.6-1.2,1.4-0.5,0.5,0.3C648.4,613.4,648.4,613.4,648.1,613.2z M684.9,641.1
			c4.7,2.7-2.3,5.9-1.2,0.6C683.8,640.9,684.2,640.8,684.9,641.1z M677.9,643.6c0.9-0.8,1.2,1.9,0.1,0.2L677.9,643.6z M687.2,652.7
			 M646.1,658.7c-2.4-0.3,3.8-3,2.4-1C648,658.5,646.9,658.7,646.1,658.7z M631.3,658.6c-3.5-0.5,0.2-2.7,0.7-0.5
			C632.1,658.6,631.6,658.6,631.3,658.6z M628,658.4c1.4-1.3-0.1,1.9-0.2,0.4C627.8,658.6,627.9,658.5,628,658.4z M638.4,667.5
			c-3.9,0.6-0.6-3.8,0.5-0.7C639,667.2,638.7,667.4,638.4,667.5z M688.4,667.8c-2.8-3.9,8.1,2.9,1.6,0.9
			C689.2,668.5,688.9,668.4,688.4,667.8z M693.2,672.7c-2.3-0.9-0.5-0.5,0.7-1.8c1.7-1.9,1.9,1.5,3.1,1.8
			C698.5,673,696.1,673.5,693.2,672.7z"/>
		<path class="st4" d="M715.8,647.1c-0.4,1.8,3.9-1,1.3-0.7C716.5,646.5,716.1,646.8,715.8,647.1 M680.1,657
			c5.2,4.7,5.2-3.6-0.1-2.2C678.7,655.2,679.6,656.4,680.1,657z M688.6,645.9c-5.1-1.3-5.5,5.8-3.9,4.4c1.4-1.3,5.4-0.2,4.5-3.7
			C689.1,646.1,689,646.1,688.6,645.9z M708.7,594.2c-0.8,0.8,1.8,0.7,0.2,0L708.7,594.2z M707.8,596.1c0.1-1.2-2.1-1.3-0.6,0.1
			C707.5,596.4,707.6,596.4,707.8,596.1z M719.1,629.6c-1.9-1.6-14.3-2.3-5.4,0.2c1.8,0.5,3.7,1,5.4,0.2L719.1,629.6z M723.4,631.9
			c1.9,0.7,1.2-2.2-1.1-1C722.3,631.4,722.9,631.6,723.4,631.9z M713.3,613.6 M709.9,625.4c-0.7-2-4.2-1-1.1,0
			C709.1,625.6,709.7,625.7,709.9,625.4z M720,616.5 M694.7,603.6 M697.5,695.8c0.6,0.8,2.4-0.7,2.8,0.4c0.4,1,1.3-1.7,1.9,5.2
			c0.5,6,1,12.7-0.7,18.5c-0.5,1.8,2.4,1.1,4.1,1c3.6-0.2,2.4,0,2.3-4.7c0-3.9-1.5-20.8,1.6-21.4c2.8-0.6,1.1-1.9,4.6-3.4
			c5.5-2.5,1.3-1.3,4.8,0.5c1.7,0.9,0.8-1.9,4,2c1.2,1.6,7.6,6.2,4.8,1.2c-2.3-5.3,4.5-2.9,5-2.4c3.3,2.9,1.8-2.6,4.2,3.1
			c0.3,0.8,0.4,1.2,1.3,1.1c1.5-0.7,6.4-1.2,8.3-1.5c3.4-0.9-1-1.6-2-4.2c-0.2-0.6-3.6,0.1-1.3-1.7c2-1.6,5.8,3.7,6.9,0.8
			c0.3-0.8-2.9-2.3,4.1-2.1c3.7,0.1-1.6-0.5,0.1-3.8c0.9-1.7-9.5-6.9-8.5-8.6c1.6-2.8,5.5-2.2-0.4-2.6c-10.2-0.8-9.8-10.2,1-11.7
			c2.6-0.4-2.6-1.6-0.3-5.4c1.2-1.9-8,0.2-6.9-3.2c0.9-2.6-1.2-3-1.5-6.3c-0.3-3.4-5.4-4.1,1.7-6.9c4.7-2.5-1.2-3,3.9-4.7
			c4-1.3-4.2-2.5-5.8-3.1c-2.6-1-10.7-4.7-8-8.5c4.5-6.2,6.2-4.3,0.4-6.5c-3.2-1.2,4.1-1.1,1-4.9c-1.5-2-4.8,0.4-2.8-3.7
			c2.7-5.7-11.3,1.1-12.4-3.9c-1-4.4,10.5-2,13.4-7.6c1.7-3.3-13.6,3.6-10.1-2.2c1.2-2,4.5-5.3,4.4-7.2c-0.1-1.9,6.2-4.4-2.1-4.4
			c-7.1,0,0.1-3.6-7.5-2.3c-4,0.7,4.3-2.6,4.3-3.6c-1.1-0.7-5-0.5-0.5-2.6c4.3-2-10.2-1-4.2-5.9c4.3-3.5-5.9,0.1-2.2-3.6
			c2.6-2.5-6-0.5-2.9-2.6c1.3-0.9,1.3-1.3,1.5-2.7c-0.1-1.7-2.9-0.2-2.3-3.8c0.3-1.6-2.5,1.3-2.3-0.6c0.1-1.3-1.8-13.3-2.9-7.6
			c-0.1,0.6-0.6,3.4-0.7,3.5c-1.3,1.1-1.1,3.5-2.5,6.2c-2.4,4.6-4.4,3.5-1.8,6.3c1.5,1.6-2.3,2.5-3.1,6.7c0,0.2-1.5,4.6-2.4,4.1
			c-0.6-0.4-1.7,6.5,0.1,7.3c6,2.6,1.8-0.1,0.2,2.7c-1.3,2.5,7,3.4,1.8,3.7c-1.9,0.1-3.7-0.4-5.5-0.8c-10.2-3.1-3.8-0.1-2.5,3.5
			c-0.7,0.8-6.6-3.7-3.5,2.3c4.1,5.3,6.1-0.6,5.7,13.4c-0.1,2.1-1.4,0.8-4.3,0.5l-2-0.2c-8.3-0.7,0.9,8.7,3.2,9.7c2.5,1,8,2.3,4,5.9
			c-4.4,3.9-7.3-2.6-12.4,1.1c2.6,4.9,6.4,6.3,0.2,8.4c-5.6,1.5-1.1,1.3-2.7,3.3c-2,2.6-5.6,4.1-4.6,7.8c0.2,0.9-6.7,5.6,1.1,5.2
			c1.6-0.1,5.5,0.5,4,3.3c-1,1.9,4.2,0.8,0.4,5.5c-2,2.5-12,5.4-10.2,7.8c3,4-2.3,3.1,8,6.8c9,3.2-9.4-1.5-6.1,3
			c0.6,0.8,3.4,2.1,5,1.5c2.7-1.1,7.1,1.6,3.1,1.2c-1.6-0.2-0.8,1.9-2.3,3.9c-1.8,2.6,3,5.5-2.9,3.8c-1.2-0.4-9.9,0-7.5,2.1
			c6.8,6.2,6.5-2.9,7,3.2c0.4,4,2.2-1.8,2.6-1c3,5.8,4.4-5.3,5.3-0.6c0,0.1,2.2,0.7-0.4,1.3c-1.3,0.3,0.8-0.4,0.1,0.5
			c-0.5,0.7,4.4,6.2,5,3.5c0.3-1.4,1.3,0.3,4,0.4c1.9,0.1,4.8,2.7,6.4,1C693,694.7,696.2,694.7,697.5,695.8z M692.3,616.9
			c-0.6-1.3,1.5-0.5,0.6,0.3C692.6,617.2,692.5,617.2,692.3,616.9z M733.5,648.2c5.2,3-2.6,6.6-1.4,0.7
			C732.3,648,732.7,647.9,733.5,648.2z M725.7,651c1-0.9,1.4,2.1,0.1,0.2L725.7,651z M736.1,661.3 M690,668
			c-2.6-0.3,4.2-3.4,2.7-1.1C692.2,667.7,690.9,667.9,690,668z M673.4,667.9c-4-0.6,0.3-3,0.8-0.5
			C674.3,667.8,673.7,667.8,673.4,667.9z M669.7,667.6c1.5-1.4-0.2,2.1-0.2,0.5C669.5,667.9,669.6,667.8,669.7,667.6z M681.4,677.9
			c-4.3,0.7-0.7-4.3,0.5-0.8C682.1,677.6,681.7,677.7,681.4,677.9z M737.4,678.2c-3.1-4.3,9.1,3.3,1.8,1
			C738.4,679,738.1,678.8,737.4,678.2z M742.8,683.6c-2.5-1-0.6-0.5,0.7-2c1.9-2.2,2.2,1.7,3.4,2
			C748.8,684.1,746.1,684.6,742.8,683.6z"/>
		<path class="st5" d="M675,665.4c297.7,0,539.1,31.1,539.1,69.5c0,38.4-241.4,69.5-539.1,69.5c-297.7,0-539.1-31.1-539.1-69.5
			C135.9,696.5,377.3,665.4,675,665.4"/>
		<path class="st1" d="M675,674.4c310.6,0,562.5,30,562.5,67c0,37-251.8,67-562.5,67c-310.6,0-562.5-30-562.5-67
			C112.5,704.4,364.4,674.4,675,674.4"/>
	</g>
	<path class="st6" d="M1124.5,325.4L723.5,94c-15.3-8.8-31.9-13.2-48.5-13.2c-16.6,0-33.2,4.4-48.5,13.2L225.5,325.4
		c-15.3,8.8-27.5,21-35.8,35.4l0,0c-8.3,14.4-12.8,31-12.8,48.7v534.1c0,17.6,4.4,34.1,12.6,48.4l0.1,0.2
		c8.3,14.4,20.4,26.6,35.8,35.4l400.9,231.5c15.3,8.8,31.9,13.2,48.5,13.2c16.6,0,33.2-4.4,48.5-13.2l400.9-231.5
		c15.3-8.8,27.5-21,35.8-35.4l0,0c8.3-14.4,12.8-31,12.8-48.7V409.5c0-17.6-4.4-34.1-12.6-48.4l-0.1-0.2
		C1151.9,346.5,1139.8,334.3,1124.5,325.4 M727.9,86.4l400.9,231.5c16.7,9.6,29.9,22.9,38.9,38.6c0,0.1,0.1,0.2,0.1,0.3
		c9,15.7,13.8,33.7,13.8,52.8v534.1c0,19.2-4.9,37.3-14,53l0,0l0,0c-9.1,15.7-22.3,29-38.9,38.6l-400.9,231.5
		c-16.7,9.6-34.8,14.4-52.9,14.4c-18.1,0-36.2-4.8-52.9-14.4l-400.9-231.5c-16.7-9.6-29.9-22.9-38.9-38.6c-0.1-0.1-0.1-0.2-0.1-0.3
		c-9-15.7-13.8-33.7-13.8-52.8V409.5c0-19.2,4.9-37.3,14-53l0,0l0,0c9.1-15.7,22.3-29,38.9-38.6L622.1,86.4
		C638.8,76.8,656.9,72,675,72C693.1,72,711.2,76.8,727.9,86.4z"/>
	<path class="st7" d="M1101.5,365.2L700.5,133.7l0,0c-8.1-4.7-16.8-7-25.6-7c-8.4,0-16.9,2.2-24.8,6.6c-0.3,0.2-0.5,0.3-0.8,0.5
		L248.5,365.2l0,0l-0.1,0c-8.1,4.7-14.5,11.1-18.9,18.6l0,0c-4.3,7.4-6.5,16.1-6.5,25.7v534.1c0,9.2,2.1,17.7,6.1,24.9
		c0.2,0.2,0.3,0.5,0.5,0.8c4.2,7.3,10.3,13.5,18.1,18.2c0.3,0.1,0.6,0.3,0.9,0.5l400.9,231.5l0,0c8.1,4.7,16.8,7,25.6,7
		c8.4,0,16.9-2.2,24.8-6.6c0.3-0.2,0.5-0.3,0.8-0.5l400.9-231.5l0,0l0.1,0c8.1-4.7,14.5-11.1,18.9-18.6l0,0
		c4.3-7.4,6.5-16.1,6.5-25.7V409.5c0-9.2-2.1-17.7-6.1-24.9c-0.2-0.2-0.3-0.5-0.5-0.8c-4.2-7.3-10.3-13.5-18.1-18.2
		C1102.1,365.5,1101.8,365.4,1101.5,365.2 M718.1,103.5L1119,335c0.3,0.2,0.7,0.4,1,0.6c13.1,7.8,23.5,18.3,30.7,30.7
		c0.2,0.4,0.4,0.7,0.6,1.1c7,12.6,10.8,26.9,10.8,42.1v534.1c0,15.6-4,30.3-11.4,43.1l0,0.1l0,0c-7.3,12.7-18.1,23.4-31.7,31.3l0,0
		l-400.9,231.5c-0.4,0.2-0.7,0.4-1.1,0.6c-13.4,7.5-27.7,11.3-42,11.3c-14.7,0-29.3-3.9-43-11.8l-0.1,0l0,0L231,1018.1
		c-0.3-0.2-0.7-0.4-1-0.6c-13.2-7.8-23.5-18.3-30.7-30.7c-0.2-0.4-0.4-0.7-0.6-1.1c-7-12.6-10.8-26.9-10.8-42.1V409.5
		c0-15.6,4-30.3,11.4-43.1l0-0.1l0,0c7.3-12.7,18.1-23.4,31.7-31.3l0,0l400.9-231.5c0.4-0.2,0.7-0.4,1.1-0.6
		c13.4-7.5,27.7-11.3,42-11.3C689.7,91.7,704.3,95.6,718.1,103.5L718.1,103.5L718.1,103.5z"/>
	<path class="st8" d="M164.5,723.2h1021c21.7,0,39.5,17.8,39.5,39.5v153.9c0,21.7-17.8,39.5-39.5,39.5h-1021
		c-21.7,0-39.5-17.8-39.5-39.5V762.7C125,741,142.8,723.2,164.5,723.2"/>
	<path class="st6" d="M1185.5,735.8h-1021c-7.4,0-14.2,3-19.1,7.9c-4.9,4.9-7.9,11.6-7.9,19v153.9c0,7.4,3,14.2,7.9,19.1
		c4.9,4.9,11.6,7.9,19.1,7.9h1021c7.4,0,14.2-3,19-7.9c4.9-4.9,7.9-11.6,7.9-19.1V762.7c0-7.4-3-14.2-7.9-19
		C1199.6,738.8,1192.9,735.8,1185.5,735.8 M164.5,710.6h1021c14.3,0,27.4,5.9,36.8,15.3c9.4,9.4,15.3,22.5,15.3,36.8v153.9
		c0,14.3-5.9,27.4-15.3,36.8c-9.4,9.4-22.5,15.3-36.8,15.3h-1021c-14.3,0-27.4-5.9-36.8-15.3c-9.4-9.4-15.3-22.5-15.3-36.8V762.7
		c0-14.3,5.9-27.4,15.3-36.8C137.2,716.5,150.2,710.6,164.5,710.6z"/>
	<g>
		<path class="st6" d="M207.6,760.1c13.7,0,23.7,3.8,30,11.3c5.6,6.6,8.5,15.7,8.5,27.4v23.6c0,11.5-4.4,21.2-13.1,29.1l18.2,71
			h-26.4l-14.9-61.4c-0.7,0.1-1.5,0.1-2.2,0.1h-14.1v61.3H169V760.1H207.6z M222.2,799.4c0-9.4-4.6-14.2-13.9-14.2h-14.7v52h14.7
			c3.9,0,7.2-1.4,9.9-4.1c2.7-2.8,4-6.1,4-9.9V799.4z"/>
		<path class="st6" d="M306.7,924.7c-10.8,0-19.9-3.8-27.4-11.3S268,896.8,268,886.1v-126h24v125.7c0,3.9,1.4,7.2,4.1,9.9
			c2.8,2.7,6.1,4.1,9.9,4.1c3.9,0,7.2-1.4,9.9-4.1c2.7-2.7,4.1-6,4.1-9.9V760.1h25.6v126c0,10.9-3.8,20-11.4,27.4
			S317.4,924.7,306.7,924.7z"/>
		<path class="st6" d="M394.9,760.1l32.4,109.2V760.1h24.5v162.5h-26.2l-33.7-104.1v104.1h-24.5V760.1H394.9z"/>
		<path class="st6" d="M501.3,760.1l32.4,109.2V760.1h24.5v162.5H532l-33.7-104.1v104.1h-24.5V760.1H501.3z"/>
		<path class="st6" d="M604.6,922.7h-24.5V760.1h24.5V922.7z"/>
		<path class="st6" d="M654.1,760.1l32.4,109.2V760.1H711v162.5h-26.2l-33.7-104.1v104.1h-24.5V760.1H654.1z"/>
		<path class="st6" d="M771.4,924.7c-10.8,0-20-3.8-27.5-11.4s-11.3-16.7-11.3-27.4v-89c0-10.8,3.8-19.9,11.4-27.5
			c7.6-7.6,16.8-11.4,27.4-11.4c10.8,0,20,3.8,27.5,11.4c7.5,7.6,11.3,16.8,11.3,27.4v18.5h-25.4v-19c0-3.9-1.4-7.3-4.1-10
			c-2.8-2.8-6.1-4.1-10-4.1c-3.9,0-7.2,1.4-9.9,4.1c-2.7,2.8-4.1,6.1-4.1,10v89.2c0,3.9,1.4,7.2,4.1,10c2.7,2.7,6,4.1,9.9,4.1
			c3.9,0,7.3-1.4,10-4.1c2.8-2.7,4.1-6.1,4.1-10v-32h-13.6v-24.5h39V886c0,10.8-3.8,20-11.4,27.5S782,924.7,771.4,924.7z"/>
		<path class="st6" d="M885.2,922.7h-24.5V760.1h35.1l22.8,116.6l21.9-116.6h33.8v162.5h-24.5V820.6l-21.2,102.1h-19.7l-23.8-101.9
			V922.7z"/>
		<path class="st6" d="M1026.3,885.3l-6,37.3h-25.5l27.5-162.5h33.8l27.2,162.5h-25.7l-5.8-37.3H1026.3z M1039.2,797.4l-9.1,64.1
			h18.2L1039.2,797.4z"/>
		<path class="st6" d="M1181,883.8c0,10.7-3.8,19.8-11.3,27.4s-16.6,11.4-27.2,11.4H1104V760.1h38.5c10.7,0,19.8,3.8,27.3,11.4
			c7.5,7.6,11.2,16.7,11.2,27.4V883.8z M1128.5,898.4h14.7c3.9,0,7.2-1.4,9.9-4.2c2.7-2.8,4-6.1,4-9.9v-85c0-3.9-1.4-7.2-4.1-9.9
			s-6-4.1-9.8-4.1h-14.7V898.4z"/>
	</g>
	<g id="XMLID_5_">
		<g>
			<path class="st9" d="M698.1,1117.2c13.1,0,23.8,9.5,23.8,21.3c0,25.8-32.9,47.8-44.2,48.4c-11.3-0.6-44.3-22.7-44.3-48.4
				c0-11.7,10.7-21.3,23.8-21.3c8.7,0,16.3,4.2,20.5,10.4C681.8,1121.4,689.3,1117.2,698.1,1117.2z"/>
		</g>
		<g>
		</g>
	</g>
	<g>
		<path class="st10" d="M1123.1,383.8c-4.2-7.3-10.3-13.5-18.1-18.2c-0.3-0.1-0.6-0.3-0.9-0.5L703.2,133.7l0,0
			c-8.1-4.7-16.8-7-25.6-7c-8.4,0-16.9,2.2-24.8,6.6c-0.3,0.2-0.5,0.3-0.8,0.5L251.1,365.2l0,0l0,0c-8.1,4.7-14.5,11.1-18.9,18.6
			l0,0c-4.3,7.4-6.5,16.1-6.5,25.7v534.1c0,9.2,2.1,17.7,6.1,24.9c0.2,0.2,0.3,0.5,0.5,0.8c4.2,7.3,10.3,13.5,18.1,18.2
			c0.3,0.1,0.6,0.3,0.9,0.5l400.9,231.5l0,0c8.1,4.7,16.8,7,25.6,7c8.4,0,16.9-2.2,24.8-6.6c0.3-0.2,0.5-0.3,0.8-0.5l400.9-231.5
			l0,0l0,0c8.1-4.7,14.5-11.1,18.9-18.6l0,0c4.3-7.4,6.5-16.1,6.5-25.7V409.5c0-9.2-2.1-17.7-6.1-24.9
			C1123.4,384.4,1123.2,384.1,1123.1,383.8z"/>
		<path class="st10" d="M1153.9,367.4c-0.2-0.4-0.4-0.7-0.6-1.1c-7.2-12.4-17.5-22.9-30.7-30.7c-0.3-0.2-0.7-0.4-1-0.6L720.7,103.5
			l0,0l-0.1,0c-13.7-7.9-28.3-11.8-43-11.8c-14.3,0-28.6,3.8-42,11.3c-0.4,0.2-0.7,0.4-1.1,0.6L233.6,335l0,0
			c-13.6,7.9-24.4,18.6-31.7,31.3l0,0l0,0.1c-7.4,12.8-11.4,27.5-11.4,43.1v534.1c0,15.2,3.7,29.5,10.8,42.1
			c0.2,0.4,0.4,0.7,0.6,1.1c7.2,12.4,17.5,22.9,30.7,30.7c0.3,0.2,0.7,0.4,1,0.6l400.9,231.5l0,0l0.1,0c13.7,7.9,28.3,11.8,43,11.8
			c14.3,0,28.6-3.8,42-11.3c0.4-0.2,0.7-0.4,1.1-0.6l400.9-231.5l0,0c13.6-7.9,24.4-18.6,31.7-31.3l0,0l0,0
			c7.4-12.8,11.4-27.5,11.4-43.1V409.5C1164.7,394.3,1160.9,380,1153.9,367.4z M1129.6,943.6c0,9.5-2.3,18.3-6.5,25.7l0,0
			c-4.3,7.5-10.8,13.9-18.9,18.6l0,0l0,0l-400.9,231.5c-0.3,0.2-0.5,0.3-0.8,0.5c-7.9,4.4-16.3,6.6-24.8,6.6c-8.7,0-17.4-2.3-25.6-7
			l0,0L251.1,987.9c-0.3-0.2-0.6-0.3-0.9-0.5c-7.8-4.7-13.9-10.9-18.1-18.2c-0.1-0.3-0.3-0.5-0.5-0.8c-4-7.2-6.1-15.7-6.1-24.9
			V409.5c0-9.5,2.3-18.3,6.5-25.7l0,0c4.4-7.5,10.8-13.9,18.9-18.6l0,0l0,0l400.9-231.5c0.3-0.2,0.5-0.3,0.8-0.5
			c7.9-4.4,16.3-6.6,24.8-6.6c8.7,0,17.4,2.3,25.6,7l0,0l400.9,231.5c0.3,0.2,0.6,0.3,0.9,0.5c7.8,4.7,13.9,10.9,18.1,18.2
			c0.2,0.3,0.3,0.5,0.5,0.8c4,7.2,6.1,15.7,6.1,24.9V943.6z"/>
	</g>
	<g>
		<path class="st7" d="M788,1150.5c-28.2-2.7-20.5-27.7-20.5-27.7c14.9-21.8,3-45.3-3.9-54.1c-1.8-2.3-5.2-2.7-7.5-0.9
			c-2.3,1.8-2.7,5.2-0.9,7.5c0.6,0.8,15.5,17.7,5.2,37.1c1-42.2-34.4-48-34.8-48c-2.9-0.4-5.6,1.6-6.1,4.5c-0.4,2.9,1.6,5.6,4.5,6.1
			c1.2,0.2,28.1,4.9,25.5,40.8l-0.2-0.1h-0.1c0-0.2,0-0.4-0.1-0.6c-2.3-13.8-8.4-23.8-17.9-29.6c-16.4-10.1-36.8-3.9-37.6-3.7
			c-2.8,0.9-4.4,3.9-3.5,6.7c0.9,2.8,3.9,4.4,6.7,3.5c0.3-0.1,16.8-4.9,29,2.6c6.8,4.2,11.1,11.7,12.9,22.3c0.1,0.6,0.3,1.2,0.6,1.7
			l-0.1,0.1c-5.6-8.6-13.7-14.4-19-16.9c-18-8.6-36.8,0.5-37.6,1c-2.5,1.6-3.3,4.8-1.7,7.3c1.6,2.5,4.8,3.3,7.3,1.7
			c0.2-0.2,14.8-6.5,27.4-0.5c5.2,2.5,14.5,12.5,14.8,27c0.3,15.8-8.8,34.1-39.1,50.1c-2.6,1.4-3.6,4.6-2.2,7.2
			c1,1.8,2.8,2.9,4.7,2.9c0.8,0,1.7-0.2,2.5-0.6c10.9-5.7,19.9-11.8,27-18.1c12-3,30.6-3.6,51.1-2.9l46.4-26.8
			C808,1151,796.2,1151.3,788,1150.5z"/>
	</g>
	<g>
		<path class="st11" d="M442.8,1020.6H432v15.5h-3.2V999h12c4,0,7,1,9.3,2.9c2.2,1.9,3.3,4.6,3.3,8c0,2.4-0.7,4.5-2.1,6.3
			c-1.4,1.8-3.3,3.1-5.6,3.8l9.3,15.8v0.3h-3.3L442.8,1020.6z M432,1018h9.6c2.6,0,4.7-0.7,6.3-2.2c1.6-1.5,2.4-3.4,2.4-5.8
			c0-2.6-0.8-4.7-2.5-6.1c-1.7-1.4-4-2.2-7-2.2H432V1018z"/>
		<path class="st11" d="M487.6,999v25.3c0,2.5-0.6,4.7-1.7,6.5s-2.6,3.3-4.6,4.3c-2,1-4.3,1.5-6.8,1.5c-3.9,0-7-1.1-9.4-3.2
			c-2.4-2.1-3.6-5.1-3.7-8.9V999h3.1v25.1c0,3.1,0.9,5.5,2.7,7.3c1.8,1.7,4.2,2.6,7.3,2.6c3.1,0,5.5-0.9,7.2-2.6
			c1.8-1.7,2.7-4.1,2.7-7.2V999H487.6z"/>
		<path class="st11" d="M523.9,1036.1h-3.1l-21.3-31.7v31.7h-3.2V999h3.2l21.3,31.8V999h3.1V1036.1z"/>
		<path class="st9" d="M549.9,1036.1h-3.1V999h3.1V1036.1z"/>
		<path class="st11" d="M586.5,1020.6h-10.8v15.5h-3.2V999h12c4,0,7,1,9.3,2.9c2.2,1.9,3.3,4.6,3.3,8c0,2.4-0.7,4.5-2.1,6.3
			c-1.4,1.8-3.3,3.1-5.6,3.8l9.3,15.8v0.3h-3.3L586.5,1020.6z M575.7,1018h9.6c2.6,0,4.7-0.7,6.3-2.2c1.6-1.5,2.4-3.4,2.4-5.8
			c0-2.6-0.8-4.7-2.5-6.1c-1.7-1.4-4-2.2-7-2.2h-8.8V1018z"/>
		<path class="st11" d="M625.8,1025.7h-16.8l-3.8,10.4h-3.3l14-37.1h3l14,37.1h-3.3L625.8,1025.7z M609.9,1023h14.9l-7.4-20.2
			L609.9,1023z"/>
		<path class="st11" d="M642.2,1036.1H639V999h3.1V1036.1z"/>
		<path class="st11" d="M673.2,1027c0-2.1-0.7-3.7-2.2-4.9c-1.4-1.2-4.1-2.3-7.9-3.4c-3.8-1.1-6.6-2.3-8.4-3.5
			c-2.5-1.8-3.8-4.2-3.8-7.1c0-2.8,1.2-5.1,3.5-6.9c2.3-1.8,5.3-2.7,9-2.7c2.5,0,4.7,0.5,6.6,1.4c1.9,1,3.5,2.3,4.5,4
			c1.1,1.7,1.6,3.6,1.6,5.7H673c0-2.5-0.9-4.6-2.6-6.1c-1.7-1.5-4.1-2.3-7-2.3c-2.8,0-5.1,0.6-6.8,1.9c-1.7,1.3-2.5,2.9-2.5,5
			c0,1.9,0.8,3.4,2.3,4.6c1.5,1.2,3.9,2.2,7.3,3.2c3.3,0.9,5.9,1.9,7.6,2.8s3,2.1,3.9,3.5c0.9,1.4,1.3,3,1.3,4.8
			c0,2.9-1.2,5.3-3.5,7c-2.3,1.8-5.4,2.6-9.2,2.6c-2.6,0-5-0.5-7.2-1.4s-3.8-2.2-5-3.9s-1.7-3.6-1.7-5.8h3.1c0,2.6,1,4.7,2.9,6.2
			c2,1.5,4.6,2.3,7.8,2.3c2.9,0,5.2-0.6,7-1.9C672.3,1030.8,673.2,1029.1,673.2,1027z"/>
		<path class="st11" d="M703.6,1018.3h-17.3v15.1h19.9v2.6h-23.1V999h23v2.6h-19.8v14h17.3V1018.3z"/>
		<path class="st9" d="M729.3,1036.1h-3.1V999h3.1V1036.1z"/>
		<path class="st11" d="M765.9,1020.6h-10.8v15.5H752V999h12c4,0,7,1,9.3,2.9c2.2,1.9,3.3,4.6,3.3,8c0,2.4-0.7,4.5-2.1,6.3
			c-1.4,1.8-3.3,3.1-5.6,3.8l9.3,15.8v0.3h-3.3L765.9,1020.6z M755.1,1018h9.6c2.6,0,4.7-0.7,6.3-2.2c1.6-1.5,2.4-3.4,2.4-5.8
			c0-2.6-0.8-4.7-2.5-6.1c-1.7-1.4-4-2.2-7-2.2h-8.8V1018z"/>
		<path class="st11" d="M805.7,1018.3h-17.3v15.1h19.9v2.6h-23.1V999h23v2.6h-19.8v14h17.3V1018.3z"/>
		<path class="st11" d="M818,1021v15.1h-3.1V999h12.6c3.9,0,6.9,1,9.1,3s3.4,4.7,3.4,8.1c0,3.5-1.1,6.2-3.2,8.1
			c-2.1,1.9-5.3,2.8-9.3,2.8H818z M818,1018.3h9.5c3,0,5.4-0.7,7-2.2c1.6-1.4,2.4-3.5,2.4-6c0-2.6-0.8-4.6-2.4-6.1
			c-1.6-1.5-3.8-2.3-6.8-2.3H818V1018.3z"/>
		<path class="st11" d="M867.5,1018.3h-17.3v15.1h19.9v2.6H847V999h23v2.6h-19.8v14h17.3V1018.3z"/>
		<path class="st11" d="M896.7,1025.7h-16.8l-3.8,10.4h-3.3l14-37.1h3l14,37.1h-3.3L896.7,1025.7z M880.8,1023h14.9l-7.4-20.2
			L880.8,1023z"/>
		<path class="st11" d="M931.1,1001.7h-12.7v34.4h-3.1v-34.4h-12.7V999h28.5V1001.7z"/>
	</g>
</g>
</svg>
